<svg width="100" height="74" viewBox="0 0 100 74" fill="none" xmlns="http://www.w3.org/2000/svg">
<g filter="url(#filter0_d_1882_7603)">
<rect x="10" y="6" width="80" height="54" rx="27" fill="#BE1E2D"/>
<path fill-rule="evenodd" clip-rule="evenodd" d="M43.7822 21.1339C43.4665 21.3035 43.1519 21.722 43.0664 22.086C43.022 22.275 43.0006 25.7108 43.0004 32.6791C43 43.9794 42.9767 43.2685 43.3634 43.7562C43.6993 44.1797 44.3477 44.3691 44.7868 44.1717C45.0446 44.0558 58.5767 34.0398 58.8281 33.7788C59.424 33.1601 59.424 32.0823 58.8281 31.4637C58.5767 31.2026 45.0446 21.1867 44.7868 21.0707C44.5296 20.9552 44.06 20.9847 43.7822 21.1339Z" fill="white"/>
</g>
<defs>
<filter id="filter0_d_1882_7603" x="0" y="0" width="100" height="74" filterUnits="userSpaceOnUse" color-interpolation-filters="sRGB">
<feFlood flood-opacity="0" result="BackgroundImageFix"/>
<feColorMatrix in="SourceAlpha" type="matrix" values="0 0 0 0 0 0 0 0 0 0 0 0 0 0 0 0 0 0 127 0" result="hardAlpha"/>
<feOffset dy="4"/>
<feGaussianBlur stdDeviation="5"/>
<feComposite in2="hardAlpha" operator="out"/>
<feColorMatrix type="matrix" values="0 0 0 0 0.916667 0 0 0 0 0.262912 0 0 0 0 0.240625 0 0 0 0.5 0"/>
<feBlend mode="normal" in2="BackgroundImageFix" result="effect1_dropShadow_1882_7603"/>
<feBlend mode="normal" in="SourceGraphic" in2="effect1_dropShadow_1882_7603" result="shape"/>
</filter>
</defs>
</svg>
