<svg width="262" height="180" viewBox="0 0 262 180" fill="none" xmlns="http://www.w3.org/2000/svg">
<path fill-rule="evenodd" clip-rule="evenodd" d="M131.011 0.5C203.346 0.5 262 40.5535 262 90C262 139.424 203.346 179.5 131.011 179.5C58.6537 179.5 0 139.424 0 90C0 40.5535 58.6537 0.5 131.011 0.5ZM131.591 10.4248C198.771 10.4248 253.251 46.2026 253.251 90.3323C253.251 134.484 198.771 170.262 131.591 170.262C64.3896 170.262 9.90953 134.484 9.90953 90.3323C9.90953 46.2026 64.3896 10.4248 131.591 10.4248ZM234.66 81.4266C240.619 81.1165 223.701 89.6234 214.149 94.2756C204.574 98.95 202.387 99.7697 199.262 100.899C196.137 102.029 192.12 103.491 190.067 106.682C188.013 109.872 187.924 114.812 187.879 118.179C187.857 121.569 187.857 123.407 187.388 124.803C186.942 126.199 186.027 127.174 184.152 128.658C182.255 130.164 179.398 132.18 177.099 134.13C174.778 136.079 173.037 137.918 172.011 138.295C170.984 138.671 170.716 137.563 169.734 135.57C168.752 133.598 167.078 130.74 166.23 129.322C165.382 127.905 165.382 127.905 165.761 127.816C166.163 127.727 166.922 127.528 167.324 127.439C167.703 127.351 167.703 127.351 166.855 127.196C166.007 127.041 164.333 126.73 162.57 125.889C160.829 125.069 158.999 123.695 155.673 121.879C152.348 120.04 147.505 117.758 143.398 116.363C139.291 114.967 135.921 114.48 133.578 114.192C131.234 113.926 129.895 113.859 129.226 113.837C128.556 113.793 128.556 113.793 128.601 113.394C128.623 112.995 128.712 112.198 128.712 111.777C128.712 111.378 128.623 111.378 128.132 112.198C127.641 112.995 126.748 114.59 125.655 115.986C124.561 117.382 123.311 118.556 121.994 119.464C120.7 120.35 119.383 120.971 117.999 121.369C116.638 121.768 115.232 121.967 114.183 121.923C113.134 121.901 112.442 121.657 111.839 121.281C111.237 120.904 110.746 120.417 110.723 119.73C110.679 119.021 111.103 118.135 112.375 115.897C113.669 113.682 115.812 110.115 117.151 107.811C118.49 105.53 119.048 104.511 119.606 103.779C120.187 103.071 120.789 102.65 122.664 102.362C124.539 102.074 127.686 101.919 131.19 101.852C134.671 101.786 138.533 101.786 140.72 101.919C142.907 102.074 143.398 102.362 147.46 102.738C151.522 103.137 159.155 103.602 163.664 103.159C168.194 102.716 169.623 101.343 184.755 96.0922C199.887 90.864 228.7 81.7367 234.66 81.4266ZM41.937 84.7718C54.0561 87.541 76.5757 93.6996 89.0965 98.0195C101.617 102.362 104.162 104.865 107.085 105.884C110.009 106.903 113.357 106.394 114.004 107.767C114.652 109.118 112.62 112.331 111.304 114.524C109.987 116.695 109.384 117.847 109.161 118.711C108.938 119.575 109.072 120.173 109.407 120.749C109.741 121.347 110.255 121.923 111.103 122.388C111.951 122.854 113.112 123.186 114.54 123.252C115.968 123.297 117.687 123.053 119.271 122.499C120.856 121.967 122.285 121.126 123.579 120.151C124.896 119.176 126.034 118.068 127.016 117.227C127.976 116.385 128.735 115.831 129.873 115.609C131.011 115.366 132.529 115.454 135.029 115.853C137.506 116.23 140.988 116.916 144.38 118.068C147.795 119.198 151.12 120.815 154.245 122.433C157.392 124.072 160.338 125.711 162.391 127.462C164.445 129.234 165.605 131.117 167.034 133.443C168.484 135.791 170.203 138.583 171.185 140.2C172.167 141.817 172.412 142.282 172.546 142.57C172.68 142.88 172.725 142.991 171.988 143.766C171.252 144.52 169.734 145.915 168.752 146.624C167.77 147.333 167.324 147.355 166.81 147.267C166.297 147.178 165.739 146.957 163.574 144.564C161.387 142.171 157.593 137.586 155.562 135.26C153.508 132.933 153.196 132.889 153.017 132.889C152.839 132.911 152.794 133 152.772 133.177C152.727 133.354 152.705 133.598 154.714 136.146C156.722 138.693 160.784 143.545 162.838 146.093C164.891 148.618 164.936 148.84 164.779 149.261C164.623 149.681 164.266 150.302 163.306 151.077C162.347 151.852 160.762 152.783 159.847 153.248C158.932 153.736 158.686 153.758 158.218 153.492C157.749 153.248 157.035 152.672 154.959 150.257C152.861 147.865 149.402 143.589 147.549 141.396C145.675 139.225 145.429 139.136 145.184 139.092C144.938 139.07 144.693 139.092 144.581 139.225C144.447 139.336 144.447 139.557 146.076 141.795C147.683 144.01 150.897 148.264 152.593 150.59C154.267 152.938 154.401 153.359 154.379 153.824C154.334 154.289 154.133 154.777 153.575 155.308C153.017 155.84 152.102 156.416 151.21 156.815C150.317 157.236 149.424 157.457 148.777 157.546C148.13 157.635 147.706 157.568 145.942 155.596C144.179 153.647 141.055 149.77 139.336 147.688C137.618 145.605 137.305 145.295 136.948 145.096C136.591 144.874 136.211 144.786 135.988 144.896C135.765 145.007 135.676 145.317 135.72 145.539C135.765 145.782 135.899 145.938 137.283 147.643C138.666 149.349 141.3 152.584 142.617 154.4C143.934 156.217 143.934 156.615 143.867 157.081C143.822 157.546 143.711 158.078 143.331 158.565C142.952 159.052 142.282 159.495 141.59 159.695C140.921 159.916 140.206 159.916 139.671 159.806C139.113 159.673 138.733 159.429 138.443 159.097C138.131 158.787 137.93 158.366 137.908 157.701C137.885 157.014 138.064 156.062 138.22 155.308C138.376 154.577 138.533 154.046 138.533 153.47C138.533 152.894 138.376 152.273 138.131 151.697C137.885 151.144 137.551 150.612 137.06 150.124C136.569 149.659 135.921 149.216 135.386 148.973C134.85 148.729 134.381 148.662 133.779 148.618C133.154 148.574 132.395 148.529 131.837 148.552C131.301 148.574 130.989 148.618 130.788 148.64C130.609 148.662 130.52 148.618 130.453 148.352C130.364 148.064 130.252 147.555 130.096 147.089C129.94 146.646 129.717 146.27 129.36 145.849C128.98 145.406 128.467 144.918 127.953 144.52C127.44 144.143 126.949 143.855 126.525 143.656C126.079 143.456 125.699 143.346 125.208 143.279C124.74 143.213 124.182 143.213 123.579 143.301C122.999 143.39 122.351 143.589 121.704 143.855C121.057 144.143 120.387 144.52 120.053 144.697C119.74 144.874 119.74 144.874 119.74 144.431C119.74 143.988 119.74 143.08 119.606 142.437C119.495 141.795 119.249 141.396 118.825 140.887C118.401 140.377 117.798 139.757 117.062 139.314C116.325 138.893 115.455 138.627 114.607 138.516C113.759 138.383 112.955 138.383 112.219 138.516C111.482 138.671 110.813 138.937 110.098 139.336C109.384 139.757 108.603 140.266 107.688 141.042C106.751 141.795 105.657 142.792 105.121 143.279C104.586 143.766 104.586 143.766 103.805 143.035C103.046 142.326 101.506 140.864 99.8542 139.402C98.2249 137.918 96.5063 136.434 94.3861 135.104C92.2658 133.775 89.7438 132.601 88.5609 130.829C87.3557 129.079 87.5119 126.73 87.0655 122.986C86.6191 119.243 85.5925 114.103 81.9099 109.827C78.2273 105.574 71.8664 102.207 70.1032 101.099C68.3624 99.9691 71.2192 101.099 65.3493 98.7728C59.4572 96.4466 44.8607 90.6424 36.8929 87.4967C28.9474 84.3509 27.6306 83.8192 27.8315 83.2432C28.0547 82.6672 29.8179 82.0247 41.937 84.7718ZM105.144 146.203C106.483 145.096 108.782 143.102 110.21 142.016C111.616 140.953 112.129 140.842 112.62 140.776C113.112 140.731 113.603 140.776 114.071 140.909C114.54 141.042 114.986 141.307 115.522 141.662C116.058 142.016 116.683 142.482 117.107 142.836C117.531 143.19 117.776 143.456 117.932 143.789C118.089 144.099 118.178 144.475 118.111 144.918C118.066 145.339 117.865 145.871 116.415 147.245C114.942 148.618 112.219 150.856 110.545 152.03C108.893 153.226 108.313 153.337 107.71 153.315C107.085 153.292 106.438 153.137 105.59 152.473C104.742 151.808 103.693 150.634 103.113 149.969C102.532 149.305 102.421 149.15 102.376 148.973C102.332 148.795 102.354 148.618 102.465 148.419C102.599 148.219 102.823 147.953 103.135 147.732C103.425 147.51 103.782 147.311 105.144 146.203ZM114.919 151.742C116.125 150.457 118.423 148.042 119.829 146.735C121.236 145.45 121.749 145.273 122.329 145.229C122.909 145.184 123.557 145.229 124.249 145.539C124.963 145.849 125.744 146.403 126.391 147.001C127.038 147.577 127.574 148.175 127.842 148.662C128.132 149.172 128.154 149.549 128.065 150.014C127.976 150.457 127.73 150.988 126.659 152.273C125.588 153.558 123.646 155.596 122.441 156.771C121.213 157.945 120.7 158.233 120.231 158.343C119.74 158.476 119.294 158.432 118.669 158.211C118.044 157.989 117.263 157.612 116.392 156.992C115.522 156.35 114.562 155.486 114.049 154.954C113.536 154.422 113.446 154.223 113.424 154.001C113.402 153.78 113.424 153.558 113.513 153.359C113.58 153.182 113.714 153.027 114.919 151.742ZM98.515 139.956C99.631 140.842 101.573 142.614 102.599 143.589C103.604 144.586 103.671 144.786 103.693 145.096C103.738 145.406 103.738 145.849 103.09 146.403C102.465 146.979 101.171 147.665 100.301 148.109C99.4524 148.574 98.9837 148.773 98.3811 148.84C97.8008 148.928 97.0643 148.884 96.2608 148.529C95.4574 148.175 94.6093 147.51 93.9397 146.779C93.2701 146.048 92.8014 145.251 92.5113 144.675C92.2435 144.099 92.1542 143.722 92.2881 143.346C92.422 142.947 92.7568 142.548 93.404 141.883C94.0513 141.241 94.9663 140.333 95.5913 139.801C96.2162 139.269 96.5287 139.136 96.8411 139.07C97.1313 139.026 97.3991 139.048 98.515 139.956ZM126.213 157.28C127.195 156.239 128.98 154.444 130.051 153.47C131.1 152.495 131.435 152.384 131.882 152.362C132.328 152.34 132.886 152.406 133.511 152.716C134.113 153.027 134.783 153.58 135.252 154.046C135.743 154.511 136.011 154.91 136.211 155.242C136.412 155.574 136.546 155.818 136.591 156.084C136.635 156.35 136.591 156.615 135.81 157.679C135.006 158.72 133.466 160.537 132.462 161.578C131.435 162.619 130.944 162.863 130.409 162.929C129.873 162.996 129.293 162.863 128.445 162.375C127.596 161.888 126.48 161.046 125.811 160.537C125.141 160.027 124.94 159.85 124.851 159.628C124.784 159.385 124.829 159.097 124.94 158.831C125.052 158.543 125.231 158.299 126.213 157.28ZM85.7264 43.4334C86.6638 41.639 88.3823 38.5375 90.3687 35.7905C92.355 33.0434 94.5869 30.6509 95.6359 29.4103C96.6849 28.1697 96.5287 28.1032 97.3991 27.8595C98.2695 27.638 100.167 27.2614 104.34 26.9512C108.492 26.6411 114.919 26.3974 122.731 26.3088C130.565 26.198 139.805 26.2423 146.567 26.3752C153.33 26.5303 157.637 26.774 160.673 26.9512C163.708 27.1506 165.494 27.2614 166.833 27.5051C168.172 27.7266 169.042 28.0589 170.426 29.4989C171.81 30.9389 173.685 33.5087 175.158 35.5911C176.631 37.6735 177.702 39.2907 179.019 41.4396C180.313 43.5663 181.853 46.2691 182.768 47.8198C183.661 49.3927 183.951 49.8579 184.331 50.2788C184.71 50.7219 185.201 51.1428 185.558 51.3422C185.938 51.5416 186.183 51.5416 186.295 51.3644C186.429 51.165 186.429 50.8105 186.406 49.9244C186.362 49.0382 186.295 47.6204 186.339 46.6678C186.362 45.7152 186.496 45.2278 186.763 44.9177C187.031 44.6076 187.478 44.4746 189.464 44.4525C191.45 44.4082 195.021 44.4525 196.829 44.4746C198.637 44.4746 198.704 44.4746 199.173 45.4715C199.664 46.4684 200.534 48.4401 200.98 49.437C201.427 50.4339 201.427 50.4339 200.936 51.1428C200.445 51.8739 199.463 53.3139 198.972 54.0449C198.481 54.776 198.481 54.776 197.343 54.8203C196.182 54.8868 193.883 55.0197 192.745 55.0861C191.607 55.1304 191.651 55.1304 192.075 55.4849C192.499 55.8394 193.325 56.5483 193.905 57.1243C194.463 57.7002 194.776 58.1433 194.977 63.3272C195.178 68.5111 195.267 78.4137 195.312 83.3761C195.356 88.3385 195.356 88.3385 194.754 83.7306C194.129 79.1226 192.901 69.929 192.165 65.1438C191.428 60.3808 191.183 60.0485 189.598 58.7193C187.991 57.3679 185.045 55.0197 183.572 53.8455C182.099 52.6714 182.099 52.6714 179.666 56.2824C177.256 59.9377 172.39 67.2041 169.98 70.8372C167.547 74.4704 167.547 74.4704 170.716 72.7424C173.908 71.0366 180.246 67.6028 183.639 65.897C187.031 64.1691 187.478 64.1691 187.835 64.302C188.214 64.4349 188.504 64.6786 188.705 65.4761C188.884 66.2958 188.951 67.6471 188.75 68.9542C188.571 70.2391 188.147 71.4797 187.344 72.9418C186.54 74.4261 185.38 76.1098 184.108 77.3725C182.835 78.6353 181.452 79.4549 180.291 79.8759C179.13 80.2746 178.171 80.2746 176.207 80.3411C174.243 80.4075 171.274 80.5183 169.578 80.4519C167.882 80.3632 167.48 80.0752 166.833 79.6322C166.163 79.2113 165.248 78.6353 164.779 78.3473C164.333 78.0593 164.333 78.0593 160.159 78.7682C156.008 79.4992 147.683 80.9392 143.532 81.6703C139.381 82.3792 139.381 82.3792 139.247 82.0247C139.135 81.6924 138.89 80.9835 138.265 80.4297C137.662 79.8759 136.68 79.4549 135.229 79.2556C133.779 79.034 131.882 79.034 130.632 79.1448C129.404 79.2556 128.824 79.4549 128.333 79.7651C127.864 80.0752 127.485 80.4962 127.172 80.9614C126.86 81.4266 126.57 81.9804 123.981 81.8032C121.392 81.6481 116.482 80.7842 112.33 80.0974C108.179 79.4106 104.809 78.9233 103.113 78.6796C101.439 78.4137 101.439 78.4137 100.635 78.8568C99.8318 79.2999 98.2472 80.1638 97.4437 80.5848C96.6403 81.0278 96.6403 81.0278 95.7475 80.9614C94.8324 80.8949 93.0246 80.7842 91.0382 80.4519C89.0742 80.1196 86.9093 79.5879 85.5925 79.2777C84.2757 78.9676 83.7846 78.879 82.691 77.5497C81.5751 76.2427 79.8565 73.6729 79.0084 72.388C78.138 71.1252 78.138 71.1252 77.9818 70.5936C77.8255 70.084 77.5354 69.0428 77.3568 68.0459C77.1783 67.0268 77.156 66.0299 77.2899 65.321C77.4238 64.59 77.7363 64.1469 78.1157 63.9254C78.4728 63.726 78.8968 63.7703 80.3922 64.4792C81.8876 65.166 84.4319 66.5395 87.6012 68.2231C90.7481 69.929 94.52 71.9449 96.4171 72.9418C98.3142 73.9609 98.3142 73.9609 96.0377 70.372C93.7835 66.7832 89.2751 59.6054 87.0209 55.9944C84.7667 52.4056 84.7667 52.4056 84.2533 52.8265C83.7177 53.2474 82.691 54.0671 81.0618 55.2412C79.4325 56.4153 77.2229 57.9439 76.107 58.7193C75.0134 59.4725 75.0134 59.4725 74.2769 64.2577C73.5627 69.0428 72.1119 78.6353 71.3977 83.4204C70.6835 88.2056 70.6835 88.2056 70.8844 83.1103C71.0853 78.015 71.487 67.8022 71.6879 62.7069C71.8664 57.6116 71.8664 57.6116 72.3574 57.2793C72.8261 56.947 73.7858 56.2824 74.2545 55.9723C74.7232 55.64 74.7232 55.64 73.8528 55.64C72.9824 55.64 71.2415 55.64 70.3487 55.64C69.4783 55.64 69.4783 55.64 68.7641 54.7538C68.0499 53.8677 66.5992 52.0733 65.885 51.1871C65.1485 50.301 65.1485 50.301 65.6395 49.5035C66.1082 48.7059 67.0679 47.0887 67.5366 46.2912C68.0053 45.4715 68.0053 45.4715 69.8577 45.4715C71.6879 45.4715 75.3705 45.4715 77.3792 45.5601C79.3878 45.6488 79.7449 45.8038 79.9012 46.0475C80.0797 46.2912 80.0797 46.6235 80.0574 47.5097C80.0351 48.4179 80.0128 49.8579 79.9905 50.5668C79.9905 51.2979 79.9905 51.2979 80.3699 50.9656C80.7493 50.6333 81.5081 49.9687 82.2447 49.1269C82.9812 48.285 83.6954 47.2438 84.1417 46.4906C84.5881 45.7152 84.7667 45.2278 85.7264 43.4334ZM110.991 29.4546C108.581 29.4103 103.314 29.6983 100.658 29.8533C98.024 29.9863 98.024 29.9863 97.042 31.4262C96.06 32.8441 94.0959 35.7019 92.7568 37.6292C91.3953 39.5787 90.6588 40.5978 89.8777 42.0821C89.0965 43.5663 88.2707 45.5158 87.8467 46.5127C87.4449 47.5097 87.4449 47.5318 88.6725 47.8198C89.9223 48.0856 92.3997 48.573 95.8591 49.0382C99.3185 49.4813 103.738 49.9022 106.907 50.0351C110.098 50.1902 112.018 50.0573 113 49.9908C113.96 49.9244 113.96 49.9244 111.393 49.3262C108.826 48.7059 103.715 47.4653 100.97 46.7343C98.2026 46.0032 97.8455 45.8038 97.5776 45.4272C97.3321 45.0728 97.1759 44.5189 97.4214 43.655C97.6669 42.791 98.3142 41.5947 99.5863 39.8446C100.859 38.0944 102.756 35.7683 104.541 34.1954C106.349 32.6004 108.023 31.7364 109.317 31.1825C110.612 30.6509 111.505 30.4515 112.196 30.1635C112.888 29.8755 113.379 29.4989 110.991 29.4546ZM90.7258 53.336C94.3414 53.4911 102.086 54.1778 107.018 54.5766C111.973 54.9754 114.116 55.064 115.187 55.0861C116.258 55.1304 116.258 55.1304 115.7 57.8996C115.12 60.6688 113.982 66.2072 113.424 68.9764C112.844 71.7455 112.844 71.7455 113.937 69.0207C115.031 66.3179 117.218 60.9125 118.312 58.2098C119.383 55.5071 119.383 55.507 123.847 55.507C128.288 55.507 137.193 55.507 141.635 55.507C146.099 55.507 146.099 55.507 146.099 55.507C146.099 55.507 146.099 55.507 147.125 58.1212C148.152 60.7131 150.205 65.9192 151.277 68.5776C152.348 71.236 152.437 71.3689 152.013 68.777C151.589 66.2072 150.629 60.9125 150.161 58.2762C149.692 55.64 149.692 55.64 153.642 55.3741C157.615 55.0861 165.516 54.5545 170.471 54.1557C175.448 53.7348 177.434 53.4468 178.439 53.2917C179.421 53.1588 179.421 53.1588 176.765 56.659C174.109 60.1814 168.797 67.2041 166.163 70.7043C163.507 74.2046 163.507 74.2046 160.807 74.6919C158.106 75.1572 152.683 76.1098 148.933 76.7079C145.184 77.3061 143.063 77.5497 141.88 77.6384C140.72 77.727 140.519 77.6384 140.073 77.2396C139.626 76.863 138.934 76.1541 138.109 75.6889C137.26 75.2458 136.234 75.0464 134.962 74.9578C133.667 74.8692 132.105 74.9135 130.967 75.0243C129.828 75.1129 129.114 75.2901 128.511 75.423C127.931 75.5781 127.44 75.6889 126.994 76.0212C126.547 76.3535 126.146 76.8851 125.789 77.1953C125.431 77.5054 125.141 77.594 121.302 77.1067C117.486 76.5971 110.143 75.5338 106.483 75.0021C102.823 74.4704 102.823 74.4704 100.524 71.3025C98.2472 68.1345 93.6719 61.8208 91.2168 58.4092C88.7617 55.0197 88.4269 54.5101 88.0029 54.0671C87.6012 53.6019 87.1101 53.2031 90.7258 53.336Z" fill="#2C3346" fill-opacity="0.05"/>
</svg>
