<svg width="42" height="12" viewBox="0 0 42 12" fill="none" xmlns="http://www.w3.org/2000/svg">
<g>
<path d="M18.9629 3.53479V0.964844L16.7286 1.2782V3.53479H15.8591V5.66127H16.7286C16.7286 7.23501 16.7286 10.2619 16.7286 11.4569H18.9629V5.66127H20.5828V3.53479H18.9629Z" fill="#000"/>
<path d="M6.75188 7.34905C7.43249 6.75494 7.86929 5.94211 7.86929 4.92182V4.47802C7.86929 2.68637 6.52718 1.36998 4.87228 1.36998L0.139404 1.3501L0.142239 11.4035L2.37769 11.4226V8.01032H4.6754L6.17323 11.4226H8.78951L6.75188 7.34905ZM5.58502 4.7999C5.58502 5.51332 5.05036 5.91825 4.39106 5.91825H2.37779V3.50397H4.39106C5.05036 3.50397 5.58502 4.00514 5.58502 4.71878V4.7999Z" fill="#000"/>
<path d="M31.8658 3.49259H30.6829V0.924805L28.4971 1.23805L28.4966 11.4225H31.8658C33.5215 11.4225 34.863 10.0473 34.863 8.2564V6.73584C34.863 4.94475 33.5215 3.49259 31.8658 3.49259ZM32.7213 8.05291C32.7213 8.80722 32.2509 9.25476 31.5541 9.25476H30.6901V5.66191H31.5541C32.2509 5.66191 32.7213 6.10991 32.7213 6.86411V8.05291Z" fill="#000"/>
<path d="M25.3606 3.53467V8.10964C25.3606 8.86361 25.1072 9.37331 24.41 9.37331H24.3755C23.6789 9.37331 23.4248 8.86361 23.4248 8.10964V3.53467H21.2195V8.28427C21.2195 10.0756 21.944 11.528 24.1456 11.528H24.5686C26.8874 11.528 27.5664 10.0756 27.5664 8.28427V3.53467H25.3606Z" fill="#000"/>
<path d="M12.9305 3.53467V8.10964C12.9305 8.86361 12.6769 9.37331 11.9799 9.37331H11.9453C11.2488 9.37331 10.9949 8.86361 10.9949 8.10964V3.53467H8.78955V8.28427C8.78955 10.0756 9.51363 11.528 11.7153 11.528H12.1385C14.4568 11.528 15.1361 10.0756 15.1361 8.28427V3.53467H12.9305Z" fill="#000"/>
<path d="M40.4574 8.76644C40.4574 8.76644 39.8122 9.62199 38.6779 9.5261C37.9711 9.46656 37.5521 9.07799 37.5521 8.32401V8.06121H41.8784V7.04376V6.99104V6.70358C41.8784 4.95669 40.6954 3.42432 38.6833 3.42432C36.6718 3.42432 35.4861 4.87966 35.4861 6.62666V6.99104V7.04376V8.2597C35.4861 10.0077 36.6693 11.54 38.6811 11.54C40.9551 11.54 41.9272 9.82389 41.9272 9.82389L40.4574 8.76644ZM37.5521 6.25649C37.5521 5.52024 37.9858 5.07701 38.6315 5.05656H38.6872C39.3592 5.05656 39.8129 5.50445 39.8129 6.25831V6.32489H37.5521V6.25649Z" fill="#000"/>
</g>
</svg>
