<svg width="23" height="21" viewBox="0 0 23 21" fill="none" xmlns="http://www.w3.org/2000/svg">
<path fill-rule="evenodd" clip-rule="evenodd" d="M0.40622 9.99275L5.70587 11.9095L7.75717 18.3025C7.88849 18.712 8.40518 18.8633 8.7481 18.5917L11.7022 16.2578C12.0119 16.0133 12.4529 16.0011 12.7765 16.2287L18.1047 19.9776C18.4716 20.236 18.9913 20.0412 19.0833 19.6116L22.9864 1.417C23.0869 0.947816 22.6112 0.556402 22.15 0.729094L0.399988 8.86018C-0.136728 9.06085 -0.13198 9.7972 0.40622 9.99275ZM7.42657 10.8892L17.7841 4.70716C17.9704 4.59645 18.1618 4.84029 18.002 4.98395L9.45398 12.6841C9.15349 12.9551 8.9597 13.3178 8.9048 13.7115L8.61366 15.8027C8.57508 16.0819 8.17043 16.1096 8.09089 15.8394L6.97102 12.0261C6.84266 11.5912 7.02963 11.1267 7.42657 10.8892Z" fill="#000"/>
</svg>
