<svg width="26" height="16" viewBox="0 0 26 16" fill="none" xmlns="http://www.w3.org/2000/svg">
<path fill-rule="evenodd" clip-rule="evenodd" d="M12.7203 15.0206H14.2745C14.2745 15.0206 14.7438 14.9689 14.9837 14.7105C15.2043 14.4733 15.1972 14.028 15.1972 14.028C15.1972 14.028 15.167 11.9428 16.1348 11.6357C17.089 11.3331 18.314 13.651 19.6127 14.5425C20.5945 15.2169 21.3407 15.069 21.3407 15.069L24.813 15.0206C24.813 15.0206 26.6295 14.9088 25.7682 13.4807C25.6977 13.364 25.2668 12.4241 23.1867 10.4936C21.0095 8.47275 21.3011 8.7997 23.9238 5.30429C25.5209 3.17552 26.1595 1.87583 25.96 1.3191C25.7699 0.789024 24.595 0.929101 24.595 0.929101L20.6855 0.953476C20.6855 0.953476 20.3956 0.913825 20.1808 1.04253C19.9708 1.16863 19.8356 1.46211 19.8356 1.46211C19.8356 1.46211 19.2168 3.10955 18.3916 4.51031C16.6509 7.46654 15.9548 7.62254 15.6704 7.43891C15.0087 7.01121 15.1738 5.7203 15.1738 4.80314C15.1738 1.93856 15.6083 0.743849 14.3278 0.434771C13.9027 0.33207 13.59 0.264144 12.5032 0.253419C11.1083 0.238794 9.92758 0.257644 9.25905 0.585247C8.81445 0.802999 8.47124 1.28823 8.68022 1.31618C8.9386 1.35063 9.52393 1.47381 9.83398 1.89631C10.2347 2.44134 10.2204 3.6653 10.2204 3.6653C10.2204 3.6653 10.4505 7.03754 9.68285 7.45646C9.15602 7.74377 8.43289 7.15714 6.881 4.47521C6.08572 3.10142 5.48544 1.58301 5.48544 1.58301C5.48544 1.58301 5.36974 1.29928 5.16304 1.1475C4.99469 1.02725 4.69048 0.906675 4.32713 0.906675L0.847321 0.929426C0.847321 0.929426 0.289615 0.945026 0.0848635 1.18748C-0.0971382 1.40328 0.0702387 1.84919 0.0702387 1.84919C0.0702387 1.84919 2.97869 8.65378 6.27195 12.0829C9.29123 15.2273 12.7203 15.0206 12.7203 15.0206Z" fill="#000"/>
</svg>
