<svg width="550" height="402" viewBox="0 0 550 402" fill="none" xmlns="http://www.w3.org/2000/svg">
<g>
<path d="M483.125 8.725C483.125 8.725 416.75 0.375 274.2 0.375C136.275 0.375 66.85 8.725 66.85 8.725C49.118 8.73163 32.1145 15.7803 19.5784 28.3211C7.04231 40.8619 3.43605e-06 57.868 4.67508e-06 75.6V326.45C-0.00327899 335.232 1.72324 343.929 5.08099 352.044C8.43874 360.159 13.362 367.533 19.5696 373.745C25.7772 379.957 33.1476 384.886 41.26 388.25C49.3723 391.614 58.0679 393.347 66.85 393.35C66.85 393.35 131.4 401.65 274.2 401.65C416.925 401.65 483.125 393.35 483.125 393.35C491.911 393.357 500.612 391.63 508.731 388.27C516.849 384.91 524.225 379.982 530.436 373.769C536.648 367.555 541.573 360.177 544.93 352.057C548.287 343.938 550.01 335.236 550 326.45V75.55C550 66.7702 548.27 58.0765 544.908 49.9656C541.547 41.8548 536.62 34.4858 530.41 28.2799C524.199 22.074 516.827 17.1527 508.713 13.7974C500.6 10.4421 491.905 8.71843 483.125 8.725ZM201.525 300.375V101.75L379.875 201L201.525 300.375Z" fill="black"/>
</g>
</svg>
