<svg width="296" height="56" viewBox="0 0 296 56" fill="none" xmlns="http://www.w3.org/2000/svg">
<path d="M100.041 36.465H107.018C107.142 36.465 107.244 36.4248 107.325 36.3431C107.406 36.2627 107.447 36.1603 107.447 36.0362V34.2828C107.447 34.1575 107.406 34.0551 107.325 33.9746C107.244 33.8942 107.142 33.8528 107.018 33.8528H100.041C99.9158 33.8528 99.8134 33.8942 99.733 33.9746C99.6525 34.0551 99.6111 34.1575 99.6111 34.2828V36.0362C99.6111 36.1603 99.6525 36.2627 99.733 36.3431C99.8134 36.4248 99.9158 36.465 100.041 36.465ZM100.041 31.2417H107.018C107.142 31.2417 107.244 31.2015 107.325 31.1198C107.406 31.0393 107.447 30.937 107.447 30.8128V29.0595C107.447 28.9342 107.406 28.8318 107.325 28.7513C107.244 28.6709 107.142 28.6295 107.018 28.6295H100.041C99.9158 28.6295 99.8134 28.6709 99.733 28.7513C99.6525 28.8318 99.6111 28.9342 99.6111 29.0595V30.8128C99.6111 30.937 99.6525 31.0393 99.733 31.1198C99.8134 31.2015 99.9158 31.2417 100.041 31.2417ZM97 36.465V28.6295C97 27.9086 97.2552 27.2935 97.7646 26.783C98.2751 26.2736 98.8902 26.0184 99.6111 26.0184H107.447C108.167 26.0184 108.784 26.2736 109.293 26.783C109.804 27.2935 110.058 27.9086 110.058 28.6295V30.3093C110.058 30.9301 109.84 31.459 109.406 31.8948L108.753 32.5478L109.406 33.2009C109.84 33.6355 110.058 34.1644 110.058 34.7864V36.465C110.058 37.1859 109.804 37.8022 109.293 38.3115C108.784 38.822 108.167 39.0761 107.447 39.0761H99.6111C98.8902 39.0761 98.2751 38.822 97.7646 38.3115C97.2552 37.8022 97 37.1859 97 36.465ZM112.409 36.465V28.6295C112.409 27.9086 112.664 27.2935 113.174 26.783C113.683 26.2736 114.299 26.0184 115.02 26.0184H122.856C123.576 26.0184 124.193 26.2736 124.702 26.783C125.213 27.2935 125.467 27.9086 125.467 28.6295V36.465C125.467 37.1859 125.213 37.8022 124.702 38.3115C124.193 38.822 123.576 39.0761 122.856 39.0761H115.02C114.299 39.0761 113.683 38.822 113.174 38.3115C112.664 37.8022 112.409 37.1859 112.409 36.465ZM115.45 36.465H122.427C122.551 36.465 122.653 36.4248 122.734 36.3431C122.815 36.2627 122.856 36.1603 122.856 36.0362V29.0595C122.856 28.9342 122.815 28.8318 122.734 28.7513C122.653 28.6709 122.551 28.6295 122.427 28.6295H115.45C115.325 28.6295 115.222 28.6709 115.142 28.7513C115.06 28.8318 115.02 28.9342 115.02 29.0595V36.0362C115.02 36.1603 115.06 36.2627 115.142 36.3431C115.222 36.4248 115.325 36.465 115.45 36.465ZM127.799 36.465V28.6295C127.799 27.9086 128.054 27.2935 128.564 26.783C129.073 26.2736 129.69 26.0184 130.411 26.0184H139.122C139.246 26.0184 139.35 26.0586 139.43 26.1391C139.511 26.2208 139.551 26.3231 139.551 26.4473V28.2006C139.551 28.3248 139.511 28.4283 139.43 28.5088C139.35 28.5892 139.246 28.6295 139.122 28.6295H130.839C130.715 28.6295 130.613 28.6709 130.532 28.7513C130.451 28.8318 130.411 28.9342 130.411 29.0595V36.0362C130.411 36.1603 130.451 36.2627 130.532 36.3431C130.613 36.4248 130.715 36.465 130.839 36.465H139.122C139.246 36.465 139.35 36.5052 139.43 36.5857C139.511 36.6674 139.551 36.7697 139.551 36.8939V38.6472C139.551 38.7714 139.511 38.8749 139.43 38.9554C139.35 39.0358 139.246 39.0761 139.122 39.0761H130.411C129.69 39.0761 129.073 38.822 128.564 38.3115C128.054 37.8022 127.799 37.1859 127.799 36.465ZM141.716 26.4473C141.716 26.3231 141.756 26.2208 141.837 26.1391C141.917 26.0586 142.02 26.0184 142.145 26.0184H154.345C154.469 26.0184 154.571 26.0586 154.652 26.1391C154.733 26.2208 154.774 26.3231 154.774 26.4473V28.2006C154.774 28.3248 154.733 28.4283 154.652 28.5088C154.571 28.5892 154.469 28.6295 154.345 28.6295H149.979C149.855 28.6295 149.753 28.6709 149.671 28.7513C149.591 28.8318 149.55 28.9342 149.55 29.0595V38.6472C149.55 38.7714 149.51 38.8749 149.43 38.9554C149.348 39.0358 149.246 39.0761 149.122 39.0761H147.368C147.244 39.0761 147.14 39.0358 147.06 38.9554C146.98 38.8749 146.938 38.7714 146.938 38.6472V29.0595C146.938 28.9342 146.898 28.8318 146.817 28.7513C146.737 28.6709 146.633 28.6295 146.509 28.6295H142.145C142.02 28.6295 141.917 28.5892 141.837 28.5088C141.756 28.4283 141.716 28.3248 141.716 28.2006V26.4473ZM156.751 36.465V28.6295C156.751 27.9086 157.006 27.2935 157.516 26.783C158.026 26.2736 158.641 26.0184 159.362 26.0184H167.198C167.919 26.0184 168.535 26.2736 169.044 26.783C169.555 27.2935 169.809 27.9086 169.809 28.6295V36.465C169.809 37.1859 169.555 37.8022 169.044 38.3115C168.535 38.822 167.919 39.0761 167.198 39.0761H159.362C158.641 39.0761 158.026 38.822 157.516 38.3115C157.006 37.8022 156.751 37.1859 156.751 36.465ZM159.792 36.465H166.769C166.893 36.465 166.995 36.4248 167.076 36.3431C167.158 36.2627 167.198 36.1603 167.198 36.0362V29.0595C167.198 28.9342 167.158 28.8318 167.076 28.7513C166.995 28.6709 166.893 28.6295 166.769 28.6295H159.792C159.667 28.6295 159.565 28.6709 159.484 28.7513C159.404 28.8318 159.362 28.9342 159.362 29.0595V36.0362C159.362 36.1603 159.404 36.2627 159.484 36.3431C159.565 36.4248 159.667 36.465 159.792 36.465ZM172.142 38.6472V26.4473C172.142 26.3231 172.182 26.2208 172.262 26.1391C172.343 26.0586 172.446 26.0184 172.571 26.0184H174.324C174.448 26.0184 174.55 26.0586 174.632 26.1391C174.713 26.2208 174.753 26.3231 174.753 26.4473V30.8128C174.753 30.937 174.793 31.0393 174.875 31.1198C174.955 31.2015 175.058 31.2417 175.182 31.2417H176.805C177.103 31.2417 177.34 31.1302 177.513 30.906L181.469 26.3541C181.643 26.1299 181.879 26.0184 182.178 26.0184H184.771C184.858 26.0184 184.913 26.0552 184.938 26.1299C184.964 26.192 184.957 26.2667 184.92 26.3541L179.846 32.2121C179.646 32.4351 179.646 32.6593 179.846 32.8835L184.92 38.7404C184.957 38.8277 184.964 38.9025 184.938 38.9646C184.913 39.0393 184.858 39.0761 184.771 39.0761H182.178C181.879 39.0761 181.643 38.9646 181.469 38.7404L177.513 34.1885C177.34 33.9655 177.103 33.8528 176.805 33.8528H175.182C175.058 33.8528 174.955 33.8942 174.875 33.9746C174.793 34.0551 174.753 34.1575 174.753 34.2828V38.6472C174.753 38.7714 174.713 38.8749 174.632 38.9554C174.55 39.0358 174.448 39.0761 174.324 39.0761H172.571C172.446 39.0761 172.343 39.0358 172.262 38.9554C172.182 38.8749 172.142 38.7714 172.142 38.6472ZM191.505 26.4473C191.505 26.3231 191.545 26.2208 191.627 26.1391C191.707 26.0586 191.809 26.0184 191.934 26.0184H204.135C204.259 26.0184 204.361 26.0586 204.442 26.1391C204.523 26.2208 204.563 26.3231 204.563 26.4473V28.2006C204.563 28.3248 204.523 28.4283 204.442 28.5088C204.361 28.5892 204.259 28.6295 204.135 28.6295H199.769C199.645 28.6295 199.543 28.6709 199.461 28.7513C199.38 28.8318 199.34 28.9342 199.34 29.0595V38.6472C199.34 38.7714 199.3 38.8749 199.218 38.9554C199.138 39.0358 199.036 39.0761 198.911 39.0761H197.157C197.033 39.0761 196.93 39.0358 196.85 38.9554C196.768 38.8749 196.728 38.7714 196.728 38.6472V29.0595C196.728 28.9342 196.688 28.8318 196.607 28.7513C196.526 28.6709 196.423 28.6295 196.299 28.6295H191.934C191.809 28.6295 191.707 28.5892 191.627 28.5088C191.545 28.4283 191.505 28.3248 191.505 28.2006V26.4473ZM216.559 28.6295H209.581C209.457 28.6295 209.354 28.6709 209.274 28.7513C209.192 28.8318 209.152 28.9342 209.152 29.0595V33.4239C209.152 33.5481 209.192 33.6516 209.274 33.7321C209.354 33.8125 209.457 33.8528 209.581 33.8528H216.559C216.683 33.8528 216.785 33.8125 216.866 33.7321C216.947 33.6516 216.988 33.5481 216.988 33.4239V29.0595C216.988 28.9342 216.947 28.8318 216.866 28.7513C216.785 28.6709 216.683 28.6295 216.559 28.6295ZM206.541 38.6472V28.6295C206.541 27.9086 206.795 27.2935 207.306 26.783C207.815 26.2736 208.431 26.0184 209.152 26.0184H216.988C217.709 26.0184 218.324 26.2736 218.834 26.783C219.345 27.2935 219.599 27.9086 219.599 28.6295V33.8528C219.599 34.5748 219.345 35.1899 218.834 35.7004C218.324 36.2098 217.709 36.465 216.988 36.465H209.581C209.457 36.465 209.354 36.5052 209.274 36.5857C209.192 36.6674 209.152 36.7697 209.152 36.8939V38.6472C209.152 38.7714 209.112 38.8749 209.031 38.9554C208.95 39.0358 208.847 39.0761 208.723 39.0761H206.97C206.846 39.0761 206.743 39.0358 206.662 38.9554C206.581 38.8749 206.541 38.7714 206.541 38.6472ZM231.967 28.6295H224.99C224.866 28.6295 224.763 28.6709 224.683 28.7513C224.601 28.8318 224.561 28.9342 224.561 29.0595V33.4239C224.561 33.5481 224.601 33.6516 224.683 33.7321C224.763 33.8125 224.866 33.8528 224.99 33.8528H231.967C232.092 33.8528 232.194 33.8125 232.275 33.7321C232.355 33.6516 232.397 33.5481 232.397 33.4239V29.0595C232.397 28.9342 232.355 28.8318 232.275 28.7513C232.194 28.6709 232.092 28.6295 231.967 28.6295ZM221.95 38.6472V28.6295C221.95 27.9086 222.204 27.2935 222.715 26.783C223.224 26.2736 223.84 26.0184 224.561 26.0184H232.397C233.117 26.0184 233.733 26.2736 234.243 26.783C234.752 27.2935 235.008 27.9086 235.008 28.6295V38.6472C235.008 38.7714 234.967 38.8749 234.887 38.9554C234.805 39.0358 234.703 39.0761 234.579 39.0761H232.825C232.701 39.0761 232.598 39.0358 232.517 38.9554C232.437 38.8749 232.397 38.7714 232.397 38.6472V36.8939C232.397 36.7697 232.355 36.6674 232.275 36.5857C232.194 36.5052 232.092 36.465 231.967 36.465H224.99C224.866 36.465 224.763 36.5052 224.683 36.5857C224.601 36.6674 224.561 36.7697 224.561 36.8939V38.6472C224.561 38.7714 224.521 38.8749 224.44 38.9554C224.359 39.0358 224.256 39.0761 224.132 39.0761H222.379C222.255 39.0761 222.151 39.0358 222.071 38.9554C221.99 38.8749 221.95 38.7714 221.95 38.6472ZM237.339 38.6288V26.4289C237.339 26.3047 237.38 26.2012 237.461 26.1207C237.542 26.0402 237.644 26 237.768 26H239.523C239.647 26 239.749 26.0402 239.83 26.1207C239.911 26.2012 239.952 26.3047 239.952 26.4289V30.7944C239.952 30.9186 239.992 31.0209 240.072 31.1014C240.154 31.1831 240.256 31.2233 240.38 31.2233H247.357C247.481 31.2233 247.585 31.1831 247.665 31.1014C247.746 31.0209 247.786 30.9186 247.786 30.7944V26.4289C247.786 26.3047 247.827 26.2012 247.908 26.1207C247.988 26.0402 248.091 26 248.216 26H249.969C250.093 26 250.196 26.0402 250.276 26.1207C250.358 26.2012 250.398 26.3047 250.398 26.4289V38.6288C250.398 38.753 250.358 38.8553 250.276 38.937C250.196 39.0174 250.093 39.0577 249.969 39.0577H248.216C248.091 39.0577 247.988 39.0174 247.908 38.937C247.827 38.8553 247.786 38.753 247.786 38.6288V34.2632C247.786 34.1391 247.746 34.0367 247.665 33.9563C247.585 33.8746 247.481 33.8344 247.357 33.8344H240.38C240.256 33.8344 240.154 33.8746 240.072 33.9563C239.992 34.0367 239.952 34.1391 239.952 34.2632V38.6288C239.952 38.753 239.911 38.8553 239.83 38.937C239.749 39.0174 239.647 39.0577 239.523 39.0577H237.768C237.644 39.0577 237.542 39.0174 237.461 38.937C237.38 38.8553 237.339 38.753 237.339 38.6288ZM252.748 38.6472V36.8939C252.748 36.7697 252.788 36.6674 252.87 36.5857C252.951 36.5052 253.053 36.465 253.177 36.465H261.46C261.584 36.465 261.688 36.4248 261.768 36.3431C261.849 36.2627 261.889 36.1603 261.889 36.0362V34.2828C261.889 34.1575 261.849 34.0551 261.768 33.9746C261.688 33.8942 261.584 33.8528 261.46 33.8528H253.177C253.053 33.8528 252.951 33.8125 252.87 33.7321C252.788 33.6516 252.748 33.5481 252.748 33.4239V31.6706C252.748 31.5464 252.788 31.4441 252.87 31.3624C252.951 31.2819 253.053 31.2417 253.177 31.2417H261.46C261.584 31.2417 261.688 31.2015 261.768 31.1198C261.849 31.0393 261.889 30.937 261.889 30.8128V29.0595C261.889 28.9342 261.849 28.8318 261.768 28.7513C261.688 28.6709 261.584 28.6295 261.46 28.6295H253.177C253.053 28.6295 252.951 28.5892 252.87 28.5088C252.788 28.4283 252.748 28.3248 252.748 28.2006V26.4473C252.748 26.3231 252.788 26.2208 252.87 26.1391C252.951 26.0586 253.053 26.0184 253.177 26.0184H261.889C262.611 26.0184 263.226 26.2736 263.736 26.783C264.246 27.2935 264.501 27.9086 264.501 28.6295V30.3277C264.501 30.937 264.284 31.459 263.848 31.8948L263.195 32.5478L263.848 33.2009C264.284 33.6355 264.501 34.1575 264.501 34.7668V36.465C264.501 37.1859 264.246 37.8022 263.736 38.3115C263.226 38.822 262.611 39.0761 261.889 39.0761H253.177C253.053 39.0761 252.951 39.0358 252.87 38.9554C252.788 38.8749 252.748 38.7714 252.748 38.6472ZM279.91 38.6472C279.91 38.7599 279.866 38.8588 279.779 38.9462C279.693 39.0335 279.587 39.0761 279.462 39.0761H277.728C277.602 39.0761 277.5 39.0335 277.42 38.9462C277.339 38.8588 277.298 38.7599 277.298 38.6472V30.4576C277.298 30.3334 277.27 30.2621 277.214 30.2437C277.159 30.2253 277.086 30.2587 277 30.346C273.902 33.9528 271.485 36.7513 269.743 38.7404C269.569 38.9646 269.332 39.0761 269.034 39.0761H267.28C267.156 39.0761 267.053 39.0335 266.973 38.9462C266.891 38.8588 266.851 38.7599 266.851 38.6472V26.4473C266.851 26.3357 266.891 26.2357 266.973 26.1483C267.053 26.0621 267.156 26.0184 267.28 26.0184H269.034C269.146 26.0184 269.246 26.0621 269.332 26.1483C269.42 26.2357 269.463 26.3357 269.463 26.4473V34.6553C269.463 34.73 269.494 34.7795 269.556 34.8048C269.631 34.8174 269.693 34.799 269.743 34.7484L277 26.3541C277.199 26.1299 277.441 26.0184 277.728 26.0184H279.462C279.587 26.0184 279.693 26.0621 279.779 26.1483C279.866 26.2357 279.91 26.3357 279.91 26.4473C279.897 26.4473 279.897 28.4812 279.91 32.5478V38.6472ZM282.055 26.4473C282.055 26.3231 282.096 26.2208 282.176 26.1391C282.258 26.0586 282.36 26.0184 282.484 26.0184H294.684C294.808 26.0184 294.911 26.0586 294.992 26.1391C295.073 26.2208 295.113 26.3231 295.113 26.4473V28.2006C295.113 28.3248 295.073 28.4283 294.992 28.5088C294.911 28.5892 294.808 28.6295 294.684 28.6295H290.319C290.194 28.6295 290.092 28.6709 290.012 28.7513C289.93 28.8318 289.89 28.9342 289.89 29.0595V38.6472C289.89 38.7714 289.849 38.8749 289.769 38.9554C289.687 39.0358 289.585 39.0761 289.461 39.0761H287.707C287.583 39.0761 287.48 39.0358 287.399 38.9554C287.319 38.8749 287.279 38.7714 287.279 38.6472V29.0595C287.279 28.9342 287.238 28.8318 287.157 28.7513C287.076 28.6709 286.974 28.6295 286.849 28.6295H282.484C282.36 28.6295 282.258 28.5892 282.176 28.5088C282.096 28.4283 282.055 28.3248 282.055 28.2006V26.4473Z" fill="#DB001A"/>
<path d="M97.897 20V12.1797H102.903V13.1572H99.1377V20H97.897ZM103.913 22.2344V14.2368H105.014L105.057 14.9619H105.083C105.227 14.7292 105.452 14.5322 105.76 14.3711C106.072 14.21 106.43 14.1294 106.834 14.1294C107.586 14.1294 108.188 14.4015 108.639 14.9458C109.094 15.4901 109.321 16.1847 109.321 17.0298V17.2017C109.321 18.0503 109.094 18.7467 108.639 19.291C108.188 19.8353 107.588 20.1074 106.84 20.1074C106.435 20.1074 106.086 20.0394 105.792 19.9033C105.502 19.7637 105.275 19.5775 105.11 19.3447V22.2344H103.913ZM105.11 18.2168C105.218 18.4639 105.397 18.6823 105.647 18.8721C105.902 19.0618 106.206 19.1567 106.561 19.1567C107.087 19.1567 107.474 18.9741 107.721 18.6089C107.968 18.2401 108.091 17.7764 108.091 17.2178V17.0137C108.091 16.4587 107.968 15.9967 107.721 15.6279C107.474 15.2591 107.087 15.0747 106.561 15.0747C106.202 15.0747 105.898 15.1714 105.647 15.3647C105.4 15.5545 105.221 15.7712 105.11 16.0146V18.2168ZM110.122 22.2344L110.127 21.2729C110.22 21.3016 110.327 21.3249 110.449 21.3428C110.571 21.3643 110.687 21.375 110.798 21.375C111.056 21.375 111.275 21.2926 111.454 21.1279C111.636 20.9668 111.83 20.5783 112.034 19.9624L112.007 19.957L109.789 14.2368H110.981L112.318 17.8892C112.372 18.0324 112.419 18.172 112.458 18.3081C112.501 18.4406 112.535 18.5695 112.56 18.6948H112.592C112.621 18.5695 112.657 18.4406 112.7 18.3081C112.743 18.172 112.787 18.0324 112.834 17.8892L114.091 14.2368H115.219L112.807 20.7412C112.617 21.2497 112.363 21.6436 112.044 21.9229C111.726 22.2057 111.334 22.3472 110.868 22.3472C110.714 22.3472 110.576 22.3364 110.455 22.3149C110.336 22.297 110.225 22.2702 110.122 22.2344ZM115.922 14.2368H120.772V20H119.575V15.1553H117.12V20H115.922V14.2368ZM122.335 14.2368H127.186V20H125.988V15.1553H123.533V20H122.335V14.2368ZM128.442 18.3027C128.442 17.7083 128.686 17.2482 129.173 16.9224C129.66 16.5929 130.276 16.4282 131.021 16.4282H132.31V16.02C132.31 15.7085 132.222 15.4561 132.046 15.2627C131.875 15.0693 131.576 14.9727 131.149 14.9727C130.723 14.9727 130.419 15.0568 130.236 15.2251C130.054 15.3934 129.962 15.5903 129.962 15.8159V15.8535H128.77V15.8159C128.77 15.3433 128.988 14.9351 129.425 14.5913C129.862 14.2476 130.448 14.0757 131.182 14.0757C131.916 14.0757 132.487 14.2386 132.895 14.5645C133.303 14.8867 133.507 15.3719 133.507 16.02V18.7163C133.507 18.9455 133.525 19.1639 133.561 19.3716C133.6 19.5793 133.654 19.7601 133.722 19.9141V20H132.557C132.507 19.9105 132.46 19.7941 132.417 19.6509C132.378 19.5041 132.353 19.3608 132.342 19.2212C132.209 19.4539 131.986 19.6598 131.67 19.8389C131.359 20.0179 130.96 20.1074 130.473 20.1074C129.907 20.1074 129.427 19.9535 129.033 19.6455C128.639 19.3376 128.442 18.89 128.442 18.3027ZM129.64 18.2383C129.64 18.5391 129.731 18.7772 129.914 18.9526C130.097 19.1245 130.383 19.2104 130.773 19.2104C131.171 19.2104 131.525 19.0815 131.837 18.8237C132.152 18.5623 132.31 18.283 132.31 17.9858V17.2339H131.149C130.652 17.2339 130.276 17.3234 130.021 17.5024C129.767 17.6815 129.64 17.9268 129.64 18.2383ZM141.521 20L139.33 17.3413L140.082 16.5518L142.982 20H141.521ZM138.352 16.6108H139.432L141.376 14.2368H142.724L139.996 17.5293H138.352V16.6108ZM138.948 14.2368V20H137.75V14.2368H138.948ZM143.379 17.2017V17.0298C143.379 16.1561 143.639 15.4453 144.158 14.8975C144.677 14.3496 145.368 14.0757 146.231 14.0757C147.094 14.0757 147.785 14.3496 148.305 14.8975C148.827 15.4453 149.089 16.1561 149.089 17.0298V17.2017C149.089 18.0789 148.827 18.7915 148.305 19.3394C147.785 19.8872 147.094 20.1611 146.231 20.1611C145.368 20.1611 144.677 19.8872 144.158 19.3394C143.639 18.7915 143.379 18.0789 143.379 17.2017ZM144.604 17.0137V17.2178C144.604 17.7907 144.74 18.2669 145.012 18.6465C145.288 19.0225 145.694 19.2104 146.231 19.2104C146.769 19.2104 147.173 19.0207 147.445 18.6411C147.721 18.2616 147.859 17.7871 147.859 17.2178V17.0137C147.859 16.4443 147.721 15.9717 147.445 15.5957C147.17 15.2161 146.765 15.0264 146.231 15.0264C145.698 15.0264 145.293 15.2161 145.018 15.5957C144.742 15.9717 144.604 16.4443 144.604 17.0137ZM150.308 20V14.2368H151.946L153.45 18.002C153.536 18.2132 153.592 18.3618 153.617 18.4478C153.642 18.5301 153.663 18.6143 153.681 18.7002H153.735C153.753 18.6143 153.772 18.5301 153.794 18.4478C153.819 18.3654 153.875 18.2204 153.96 18.0127L155.475 14.2368H157.086V20H155.921V16.2188C155.921 16.0075 155.923 15.8535 155.926 15.7568C155.933 15.6566 155.941 15.5688 155.948 15.4937H155.899C155.878 15.5688 155.853 15.653 155.824 15.7461C155.799 15.8392 155.745 15.9914 155.663 16.2026L154.143 20H153.149L151.629 16.1865C151.554 15.9967 151.5 15.8535 151.468 15.7568C151.44 15.6566 151.416 15.5688 151.398 15.4937H151.345C151.352 15.5688 151.359 15.653 151.366 15.7461C151.373 15.8392 151.375 15.9842 151.372 16.1812V20H150.308ZM158.644 14.2368H163.494V20H162.296V15.1553H159.842V20H158.644V14.2368ZM164.751 18.3027C164.751 17.7083 164.994 17.2482 165.481 16.9224C165.968 16.5929 166.584 16.4282 167.329 16.4282H168.618V16.02C168.618 15.7085 168.53 15.4561 168.355 15.2627C168.183 15.0693 167.884 14.9727 167.458 14.9727C167.032 14.9727 166.728 15.0568 166.545 15.2251C166.362 15.3934 166.271 15.5903 166.271 15.8159V15.8535H165.079V15.8159C165.079 15.3433 165.297 14.9351 165.734 14.5913C166.171 14.2476 166.756 14.0757 167.49 14.0757C168.224 14.0757 168.795 14.2386 169.204 14.5645C169.612 14.8867 169.816 15.3719 169.816 16.02V18.7163C169.816 18.9455 169.834 19.1639 169.87 19.3716C169.909 19.5793 169.963 19.7601 170.031 19.9141V20H168.865C168.815 19.9105 168.769 19.7941 168.726 19.6509C168.686 19.5041 168.661 19.3608 168.65 19.2212C168.518 19.4539 168.294 19.6598 167.979 19.8389C167.667 20.0179 167.268 20.1074 166.781 20.1074C166.215 20.1074 165.736 19.9535 165.342 19.6455C164.948 19.3376 164.751 18.89 164.751 18.3027ZM165.949 18.2383C165.949 18.5391 166.04 18.7772 166.223 18.9526C166.405 19.1245 166.692 19.2104 167.082 19.2104C167.479 19.2104 167.834 19.0815 168.146 18.8237C168.461 18.5623 168.618 18.283 168.618 17.9858V17.2339H167.458C166.96 17.2339 166.584 17.3234 166.33 17.5024C166.076 17.6815 165.949 17.9268 165.949 18.2383ZM171.374 14.2368H172.571V16.6108H175.08V14.2368H176.277V20H175.08V17.5293H172.571V20H171.374V14.2368ZM177.84 20V14.2368H179.027V17.6528C179.027 17.7603 179.026 17.8856 179.022 18.0288C179.022 18.1685 179.018 18.2938 179.011 18.4048H179.06C179.11 18.3117 179.167 18.2096 179.231 18.0986C179.296 17.984 179.364 17.8677 179.436 17.7495L181.622 14.2368H182.83V20H181.638V16.584C181.638 16.4766 181.639 16.3512 181.643 16.208C181.647 16.0648 181.652 15.9377 181.659 15.8267H181.6C181.554 15.9233 181.498 16.029 181.434 16.1436C181.373 16.2546 181.306 16.3691 181.235 16.4873L179.049 20H177.84ZM184.393 20V14.2368H185.58V17.6528C185.58 17.7603 185.578 17.8856 185.575 18.0288C185.575 18.1685 185.571 18.2938 185.564 18.4048H185.612C185.662 18.3117 185.72 18.2096 185.784 18.0986C185.849 17.984 185.917 17.8677 185.988 17.7495L188.174 14.2368H189.383V20H188.19V16.584C188.19 16.4766 188.192 16.3512 188.196 16.208C188.199 16.0648 188.205 15.9377 188.212 15.8267H188.153C188.106 15.9233 188.051 16.029 187.986 16.1436C187.925 16.2546 187.859 16.3691 187.788 16.4873L185.602 20H184.393ZM186.891 12.4321C187.163 12.4321 187.385 12.3587 187.557 12.2119C187.729 12.0615 187.868 11.8162 187.976 11.4761L188.83 11.938C188.651 12.4178 188.391 12.7633 188.051 12.9746C187.711 13.1859 187.324 13.2915 186.891 13.2915C186.457 13.2915 186.071 13.1877 185.73 12.98C185.394 12.7687 185.134 12.4214 184.952 11.938L185.822 11.4653C185.929 11.8198 186.067 12.0705 186.235 12.2173C186.404 12.3605 186.622 12.4321 186.891 12.4321Z" fill="#282D3C" fill-opacity="0.8"/>
<mask id="path-3-inside-1_823_2816" fill="white">
<path fill-rule="evenodd" clip-rule="evenodd" d="M70.6702 24.4936C72.3893 24.4042 67.509 26.8572 64.7533 28.1987C61.9912 29.5466 61.3603 29.783 60.4589 30.1087C59.5575 30.4345 58.3986 30.8562 57.8063 31.776C57.2139 32.6959 57.1882 34.1205 57.1753 35.0915C57.1688 36.0689 57.1688 36.5991 57.0336 37.0015C56.9049 37.404 56.6409 37.6851 56.1001 38.1131C55.5528 38.5475 54.7287 39.1288 54.0655 39.6909C53.3959 40.2531 52.8937 40.7833 52.5976 40.8919C52.3014 41.0005 52.2241 40.6811 51.9409 40.1062C51.6576 39.5376 51.1747 38.7135 50.93 38.3047C50.6854 37.8959 50.6854 37.8959 50.7948 37.8703C50.9107 37.8448 51.1296 37.7873 51.2455 37.7617C51.355 37.7362 51.355 37.7362 51.1103 37.6914C50.8656 37.6467 50.3828 37.5573 49.8741 37.3145C49.3719 37.0782 48.844 36.6821 47.8846 36.1583C46.9253 35.6281 45.5282 34.9701 44.3435 34.5677C43.1589 34.1652 42.1866 34.0247 41.5106 33.9416C40.8346 33.865 40.4483 33.8458 40.2551 33.8394C40.062 33.8266 40.062 33.8266 40.0748 33.7116C40.0813 33.5967 40.107 33.3667 40.107 33.2453C40.107 33.1303 40.0813 33.1303 39.9396 33.3667C39.798 33.5967 39.5405 34.0566 39.225 34.4591C38.9095 34.8615 38.5489 35.2001 38.1691 35.462C37.7956 35.7175 37.4158 35.8964 37.0166 36.0114C36.6239 36.1264 36.2182 36.1839 35.9156 36.1711C35.613 36.1647 35.4134 36.0944 35.2396 35.9858C35.0658 35.8772 34.9241 35.7367 34.9177 35.5387C34.9048 35.3342 35.0271 35.0787 35.3941 34.4335C35.7675 33.7947 36.3856 32.7662 36.7719 32.1018C37.1582 31.4439 37.3192 31.15 37.4802 30.9392C37.6476 30.7348 37.8214 30.6134 38.3622 30.5304C38.9031 30.4473 39.8109 30.4026 40.8217 30.3834C41.8261 30.3643 42.9399 30.3643 43.5709 30.4026C44.2019 30.4473 44.3435 30.5304 45.5153 30.639C46.6871 30.7539 48.889 30.8881 50.1896 30.7603C51.4966 30.6326 51.9087 30.2365 56.2739 28.7225C60.6392 27.2149 68.9512 24.583 70.6702 24.4936ZM15.0745 25.4582C18.5705 26.2567 25.0669 28.0326 28.6788 29.2783C32.2908 30.5304 33.0248 31.2522 33.8682 31.5461C34.7116 31.8399 35.6774 31.693 35.8641 32.0891C36.0508 32.4787 35.4649 33.405 35.0851 34.0374C34.7052 34.6635 34.5314 34.9957 34.467 35.2448C34.4026 35.4939 34.4412 35.6664 34.5378 35.8325C34.6344 36.005 34.7825 36.1711 35.0271 36.3052C35.2718 36.4394 35.6066 36.5352 36.0186 36.5544C36.4307 36.5671 36.9265 36.4969 37.3836 36.3372C37.8407 36.1839 38.2528 35.9411 38.6262 35.66C39.0061 35.3789 39.3344 35.0595 39.6177 34.8168C39.8946 34.574 40.1135 34.4143 40.4418 34.3505C40.7702 34.2802 41.208 34.3057 41.9291 34.4207C42.6438 34.5293 43.6482 34.7274 44.6268 35.0595C45.6119 35.3853 46.5712 35.8517 47.4726 36.318C48.3804 36.7907 49.2303 37.2634 49.8226 37.7681C50.4149 38.2792 50.7498 38.8221 51.1618 39.4929C51.5803 40.17 52.0761 40.9749 52.3594 41.4413C52.6426 41.9076 52.7135 42.0418 52.7521 42.1248C52.7907 42.2142 52.8036 42.2462 52.5911 42.4698C52.3787 42.687 51.9409 43.0894 51.6576 43.2938C51.3743 43.4983 51.2455 43.5046 51.0974 43.4791C50.9493 43.4535 50.7884 43.3897 50.1639 42.6997C49.5329 42.0098 48.4384 40.6875 47.8525 40.0167C47.2601 39.346 47.17 39.3332 47.1185 39.3332C47.067 39.3396 47.0541 39.3651 47.0477 39.4162C47.0348 39.4673 47.0283 39.5376 47.6078 40.2723C48.1873 41.0069 49.359 42.4059 49.9514 43.1405C50.5437 43.8688 50.5566 43.9326 50.5115 44.054C50.4665 44.1754 50.3634 44.3543 50.0866 44.5779C49.8097 44.8014 49.3526 45.0697 49.0886 45.2039C48.8247 45.3444 48.7538 45.3508 48.6186 45.2742C48.4834 45.2039 48.2774 45.0378 47.6786 44.3415C47.0734 43.6516 46.0755 42.4187 45.5411 41.7862C45.0002 41.1602 44.9294 41.1346 44.8586 41.1219C44.7878 41.1155 44.7169 41.1219 44.6848 41.1602C44.6461 41.1921 44.6461 41.256 45.1161 41.9012C45.5797 42.54 46.5068 43.7666 46.9962 44.4373C47.479 45.1145 47.5177 45.2358 47.5112 45.37C47.4983 45.5041 47.4404 45.6447 47.2794 45.798C47.1185 45.9513 46.8545 46.1174 46.597 46.2324C46.3394 46.3537 46.0819 46.4176 45.8952 46.4432C45.7085 46.4687 45.5861 46.4496 45.0775 45.881C44.5689 45.3189 43.6675 44.2009 43.1717 43.6005C42.676 43 42.5858 42.9105 42.4828 42.8531C42.3798 42.7892 42.2703 42.7636 42.206 42.7956C42.1416 42.8275 42.1158 42.9169 42.1287 42.9808C42.1416 43.0511 42.1802 43.0958 42.5794 43.5877C42.9786 44.0796 43.7383 45.0122 44.1182 45.5361C44.498 46.0599 44.498 46.1749 44.4787 46.309C44.4658 46.4432 44.4337 46.5965 44.3242 46.737C44.2148 46.8776 44.0216 47.0053 43.822 47.0628C43.6289 47.1267 43.4228 47.1267 43.2683 47.0948C43.1073 47.0564 42.9979 46.9862 42.9142 46.8904C42.824 46.8009 42.7661 46.6795 42.7597 46.4879C42.7532 46.2899 42.8047 46.0152 42.8498 45.798C42.8949 45.5872 42.9399 45.4339 42.9399 45.2678C42.9399 45.1017 42.8949 44.9228 42.824 44.7567C42.7532 44.597 42.6567 44.4437 42.515 44.3032C42.3734 44.169 42.1866 44.0412 42.0321 43.971C41.8776 43.9007 41.7424 43.8815 41.5686 43.8688C41.3883 43.856 41.1694 43.8432 41.0084 43.8496C40.8539 43.856 40.7638 43.8688 40.7058 43.8752C40.6543 43.8815 40.6285 43.8688 40.6092 43.7921C40.5835 43.7091 40.5513 43.5621 40.5062 43.428C40.4612 43.3002 40.3968 43.1916 40.2938 43.0702C40.1843 42.9425 40.0362 42.8019 39.8881 42.687C39.74 42.5784 39.5984 42.4953 39.4761 42.4378C39.3473 42.3803 39.2379 42.3484 39.0962 42.3292C38.961 42.3101 38.8 42.3101 38.6262 42.3356C38.4588 42.3612 38.2721 42.4187 38.0854 42.4953C37.8987 42.5784 37.7055 42.687 37.6089 42.7381C37.5188 42.7892 37.5188 42.7892 37.5188 42.6614C37.5188 42.5336 37.5188 42.2717 37.4802 42.0865C37.448 41.9012 37.3771 41.7862 37.2548 41.6393C37.1325 41.4924 36.9586 41.3135 36.7462 41.1858C36.5337 41.0644 36.2826 40.9877 36.038 40.9558C35.7933 40.9175 35.5615 40.9175 35.349 40.9558C35.1366 41.0005 34.9434 41.0772 34.7374 41.1921C34.5314 41.3135 34.306 41.4604 34.042 41.684C33.7716 41.9012 33.4562 42.1887 33.3016 42.3292C33.1471 42.4698 33.1471 42.4698 32.9218 42.259C32.7029 42.0545 32.2586 41.6329 31.7822 41.2113C31.3122 40.7833 30.8164 40.3553 30.2047 39.972C29.5931 39.5887 28.8656 39.2502 28.5243 38.7391C28.1766 38.2344 28.2217 37.5573 28.0929 36.4777C27.9642 35.3981 27.668 33.9161 26.6057 32.6832C25.5433 31.4566 23.7084 30.4857 23.1997 30.1662C22.6976 29.8405 23.5217 30.1662 21.8284 29.4955C20.1286 28.8247 15.9179 27.151 13.6194 26.2439C11.3273 25.3368 10.9474 25.1835 11.0054 25.0174C11.0698 24.8513 11.5784 24.6661 15.0745 25.4582ZM33.3081 43.1725C33.6944 42.8531 34.3575 42.2781 34.7696 41.9651C35.1752 41.6585 35.3233 41.6265 35.4649 41.6074C35.6066 41.5946 35.7482 41.6074 35.8834 41.6457C36.0186 41.684 36.1474 41.7607 36.3019 41.8629C36.4565 41.9651 36.6367 42.0993 36.7591 42.2015C36.8814 42.3037 36.9522 42.3803 36.9973 42.4762C37.0424 42.5656 37.0681 42.6742 37.0488 42.8019C37.0359 42.9233 36.978 43.0766 36.5595 43.4727C36.1345 43.8688 35.349 44.514 34.8662 44.8525C34.3897 45.1975 34.2223 45.2294 34.0485 45.223C33.8682 45.2167 33.6815 45.1719 33.4368 44.9803C33.1922 44.7887 32.8896 44.4501 32.7222 44.2584C32.5548 44.0668 32.5226 44.0221 32.5097 43.971C32.4968 43.9199 32.5033 43.8688 32.5355 43.8113C32.5741 43.7538 32.6385 43.6771 32.7286 43.6132C32.8123 43.5494 32.9153 43.4919 33.3081 43.1725ZM36.1281 44.7695C36.4758 44.399 37.1389 43.7027 37.5445 43.3258C37.9502 42.9553 38.0983 42.9042 38.2657 42.8914C38.4331 42.8786 38.6198 42.8914 38.8194 42.9808C39.0254 43.0703 39.2507 43.23 39.4374 43.4024C39.6242 43.5685 39.7787 43.741 39.8559 43.8815C39.9396 44.0285 39.9461 44.1371 39.9203 44.2712C39.8946 44.399 39.8237 44.5523 39.5147 44.9228C39.2057 45.2933 38.6455 45.881 38.2978 46.2196C37.9437 46.5582 37.7956 46.6412 37.6604 46.6731C37.5188 46.7115 37.39 46.6987 37.2097 46.6348C37.0295 46.5709 36.8041 46.4623 36.553 46.2835C36.3019 46.0982 36.0251 45.8491 35.877 45.6958C35.7289 45.5424 35.7032 45.485 35.6967 45.4211C35.6903 45.3572 35.6967 45.2933 35.7225 45.2358C35.7418 45.1847 35.7804 45.14 36.1281 44.7695ZM31.3959 41.371C31.7178 41.6265 32.2779 42.1376 32.5741 42.4187C32.8638 42.7061 32.8831 42.7636 32.8896 42.8531C32.9024 42.9425 32.9024 43.0702 32.7157 43.23C32.5355 43.396 32.162 43.5941 31.9109 43.7218C31.6663 43.856 31.5311 43.9135 31.3572 43.9326C31.1898 43.9582 30.9774 43.9454 30.7456 43.8432C30.5138 43.741 30.2691 43.5494 30.076 43.3385C29.8828 43.1277 29.7476 42.8978 29.6639 42.7317C29.5867 42.5656 29.5609 42.457 29.5995 42.3484C29.6382 42.2334 29.7347 42.1184 29.9215 41.9268C30.1082 41.7415 30.3722 41.4796 30.5524 41.3263C30.7327 41.173 30.8228 41.1346 30.913 41.1155C30.9967 41.1027 31.0739 41.1091 31.3959 41.371ZM39.3859 46.3665C39.6692 46.0663 40.1843 45.5488 40.4933 45.2678C40.7959 44.9867 40.8925 44.9547 41.0213 44.9484C41.1501 44.942 41.311 44.9611 41.4913 45.0506C41.6651 45.14 41.8583 45.2997 41.9935 45.4339C42.1351 45.568 42.2124 45.683 42.2703 45.7788C42.3283 45.8746 42.3669 45.9449 42.3798 46.0216C42.3927 46.0982 42.3798 46.1749 42.1545 46.4815C41.9227 46.7817 41.4784 47.3056 41.1887 47.6058C40.8925 47.9061 40.7509 47.9763 40.5964 47.9955C40.4418 48.0147 40.2744 47.9763 40.0298 47.8358C39.7851 47.6952 39.4632 47.4525 39.27 47.3056C39.0769 47.1587 39.0189 47.1075 38.9932 47.0437C38.9739 46.9734 38.9868 46.8903 39.0189 46.8137C39.0511 46.7306 39.1026 46.6604 39.3859 46.3665Z"/>
</mask>
<path fill-rule="evenodd" clip-rule="evenodd" d="M70.6702 24.4936C72.3893 24.4042 67.509 26.8572 64.7533 28.1987C61.9912 29.5466 61.3603 29.783 60.4589 30.1087C59.5575 30.4345 58.3986 30.8562 57.8063 31.776C57.2139 32.6959 57.1882 34.1205 57.1753 35.0915C57.1688 36.0689 57.1688 36.5991 57.0336 37.0015C56.9049 37.404 56.6409 37.6851 56.1001 38.1131C55.5528 38.5475 54.7287 39.1288 54.0655 39.6909C53.3959 40.2531 52.8937 40.7833 52.5976 40.8919C52.3014 41.0005 52.2241 40.6811 51.9409 40.1062C51.6576 39.5376 51.1747 38.7135 50.93 38.3047C50.6854 37.8959 50.6854 37.8959 50.7948 37.8703C50.9107 37.8448 51.1296 37.7873 51.2455 37.7617C51.355 37.7362 51.355 37.7362 51.1103 37.6914C50.8656 37.6467 50.3828 37.5573 49.8741 37.3145C49.3719 37.0782 48.844 36.6821 47.8846 36.1583C46.9253 35.6281 45.5282 34.9701 44.3435 34.5677C43.1589 34.1652 42.1866 34.0247 41.5106 33.9416C40.8346 33.865 40.4483 33.8458 40.2551 33.8394C40.062 33.8266 40.062 33.8266 40.0748 33.7116C40.0813 33.5967 40.107 33.3667 40.107 33.2453C40.107 33.1303 40.0813 33.1303 39.9396 33.3667C39.798 33.5967 39.5405 34.0566 39.225 34.4591C38.9095 34.8615 38.5489 35.2001 38.1691 35.462C37.7956 35.7175 37.4158 35.8964 37.0166 36.0114C36.6239 36.1264 36.2182 36.1839 35.9156 36.1711C35.613 36.1647 35.4134 36.0944 35.2396 35.9858C35.0658 35.8772 34.9241 35.7367 34.9177 35.5387C34.9048 35.3342 35.0271 35.0787 35.3941 34.4335C35.7675 33.7947 36.3856 32.7662 36.7719 32.1018C37.1582 31.4439 37.3192 31.15 37.4802 30.9392C37.6476 30.7348 37.8214 30.6134 38.3622 30.5304C38.9031 30.4473 39.8109 30.4026 40.8217 30.3834C41.8261 30.3643 42.9399 30.3643 43.5709 30.4026C44.2019 30.4473 44.3435 30.5304 45.5153 30.639C46.6871 30.7539 48.889 30.8881 50.1896 30.7603C51.4966 30.6326 51.9087 30.2365 56.2739 28.7225C60.6392 27.2149 68.9512 24.583 70.6702 24.4936ZM15.0745 25.4582C18.5705 26.2567 25.0669 28.0326 28.6788 29.2783C32.2908 30.5304 33.0248 31.2522 33.8682 31.5461C34.7116 31.8399 35.6774 31.693 35.8641 32.0891C36.0508 32.4787 35.4649 33.405 35.0851 34.0374C34.7052 34.6635 34.5314 34.9957 34.467 35.2448C34.4026 35.4939 34.4412 35.6664 34.5378 35.8325C34.6344 36.005 34.7825 36.1711 35.0271 36.3052C35.2718 36.4394 35.6066 36.5352 36.0186 36.5544C36.4307 36.5671 36.9265 36.4969 37.3836 36.3372C37.8407 36.1839 38.2528 35.9411 38.6262 35.66C39.0061 35.3789 39.3344 35.0595 39.6177 34.8168C39.8946 34.574 40.1135 34.4143 40.4418 34.3505C40.7702 34.2802 41.208 34.3057 41.9291 34.4207C42.6438 34.5293 43.6482 34.7274 44.6268 35.0595C45.6119 35.3853 46.5712 35.8517 47.4726 36.318C48.3804 36.7907 49.2303 37.2634 49.8226 37.7681C50.4149 38.2792 50.7498 38.8221 51.1618 39.4929C51.5803 40.17 52.0761 40.9749 52.3594 41.4413C52.6426 41.9076 52.7135 42.0418 52.7521 42.1248C52.7907 42.2142 52.8036 42.2462 52.5911 42.4698C52.3787 42.687 51.9409 43.0894 51.6576 43.2938C51.3743 43.4983 51.2455 43.5046 51.0974 43.4791C50.9493 43.4535 50.7884 43.3897 50.1639 42.6997C49.5329 42.0098 48.4384 40.6875 47.8525 40.0167C47.2601 39.346 47.17 39.3332 47.1185 39.3332C47.067 39.3396 47.0541 39.3651 47.0477 39.4162C47.0348 39.4673 47.0283 39.5376 47.6078 40.2723C48.1873 41.0069 49.359 42.4059 49.9514 43.1405C50.5437 43.8688 50.5566 43.9326 50.5115 44.054C50.4665 44.1754 50.3634 44.3543 50.0866 44.5779C49.8097 44.8014 49.3526 45.0697 49.0886 45.2039C48.8247 45.3444 48.7538 45.3508 48.6186 45.2742C48.4834 45.2039 48.2774 45.0378 47.6786 44.3415C47.0734 43.6516 46.0755 42.4187 45.5411 41.7862C45.0002 41.1602 44.9294 41.1346 44.8586 41.1219C44.7878 41.1155 44.7169 41.1219 44.6848 41.1602C44.6461 41.1921 44.6461 41.256 45.1161 41.9012C45.5797 42.54 46.5068 43.7666 46.9962 44.4373C47.479 45.1145 47.5177 45.2358 47.5112 45.37C47.4983 45.5041 47.4404 45.6447 47.2794 45.798C47.1185 45.9513 46.8545 46.1174 46.597 46.2324C46.3394 46.3537 46.0819 46.4176 45.8952 46.4432C45.7085 46.4687 45.5861 46.4496 45.0775 45.881C44.5689 45.3189 43.6675 44.2009 43.1717 43.6005C42.676 43 42.5858 42.9105 42.4828 42.8531C42.3798 42.7892 42.2703 42.7636 42.206 42.7956C42.1416 42.8275 42.1158 42.9169 42.1287 42.9808C42.1416 43.0511 42.1802 43.0958 42.5794 43.5877C42.9786 44.0796 43.7383 45.0122 44.1182 45.5361C44.498 46.0599 44.498 46.1749 44.4787 46.309C44.4658 46.4432 44.4337 46.5965 44.3242 46.737C44.2148 46.8776 44.0216 47.0053 43.822 47.0628C43.6289 47.1267 43.4228 47.1267 43.2683 47.0948C43.1073 47.0564 42.9979 46.9862 42.9142 46.8904C42.824 46.8009 42.7661 46.6795 42.7597 46.4879C42.7532 46.2899 42.8047 46.0152 42.8498 45.798C42.8949 45.5872 42.9399 45.4339 42.9399 45.2678C42.9399 45.1017 42.8949 44.9228 42.824 44.7567C42.7532 44.597 42.6567 44.4437 42.515 44.3032C42.3734 44.169 42.1866 44.0412 42.0321 43.971C41.8776 43.9007 41.7424 43.8815 41.5686 43.8688C41.3883 43.856 41.1694 43.8432 41.0084 43.8496C40.8539 43.856 40.7638 43.8688 40.7058 43.8752C40.6543 43.8815 40.6285 43.8688 40.6092 43.7921C40.5835 43.7091 40.5513 43.5621 40.5062 43.428C40.4612 43.3002 40.3968 43.1916 40.2938 43.0702C40.1843 42.9425 40.0362 42.8019 39.8881 42.687C39.74 42.5784 39.5984 42.4953 39.4761 42.4378C39.3473 42.3803 39.2379 42.3484 39.0962 42.3292C38.961 42.3101 38.8 42.3101 38.6262 42.3356C38.4588 42.3612 38.2721 42.4187 38.0854 42.4953C37.8987 42.5784 37.7055 42.687 37.6089 42.7381C37.5188 42.7892 37.5188 42.7892 37.5188 42.6614C37.5188 42.5336 37.5188 42.2717 37.4802 42.0865C37.448 41.9012 37.3771 41.7862 37.2548 41.6393C37.1325 41.4924 36.9586 41.3135 36.7462 41.1858C36.5337 41.0644 36.2826 40.9877 36.038 40.9558C35.7933 40.9175 35.5615 40.9175 35.349 40.9558C35.1366 41.0005 34.9434 41.0772 34.7374 41.1921C34.5314 41.3135 34.306 41.4604 34.042 41.684C33.7716 41.9012 33.4562 42.1887 33.3016 42.3292C33.1471 42.4698 33.1471 42.4698 32.9218 42.259C32.7029 42.0545 32.2586 41.6329 31.7822 41.2113C31.3122 40.7833 30.8164 40.3553 30.2047 39.972C29.5931 39.5887 28.8656 39.2502 28.5243 38.7391C28.1766 38.2344 28.2217 37.5573 28.0929 36.4777C27.9642 35.3981 27.668 33.9161 26.6057 32.6832C25.5433 31.4566 23.7084 30.4857 23.1997 30.1662C22.6976 29.8405 23.5217 30.1662 21.8284 29.4955C20.1286 28.8247 15.9179 27.151 13.6194 26.2439C11.3273 25.3368 10.9474 25.1835 11.0054 25.0174C11.0698 24.8513 11.5784 24.6661 15.0745 25.4582ZM33.3081 43.1725C33.6944 42.8531 34.3575 42.2781 34.7696 41.9651C35.1752 41.6585 35.3233 41.6265 35.4649 41.6074C35.6066 41.5946 35.7482 41.6074 35.8834 41.6457C36.0186 41.684 36.1474 41.7607 36.3019 41.8629C36.4565 41.9651 36.6367 42.0993 36.7591 42.2015C36.8814 42.3037 36.9522 42.3803 36.9973 42.4762C37.0424 42.5656 37.0681 42.6742 37.0488 42.8019C37.0359 42.9233 36.978 43.0766 36.5595 43.4727C36.1345 43.8688 35.349 44.514 34.8662 44.8525C34.3897 45.1975 34.2223 45.2294 34.0485 45.223C33.8682 45.2167 33.6815 45.1719 33.4368 44.9803C33.1922 44.7887 32.8896 44.4501 32.7222 44.2584C32.5548 44.0668 32.5226 44.0221 32.5097 43.971C32.4968 43.9199 32.5033 43.8688 32.5355 43.8113C32.5741 43.7538 32.6385 43.6771 32.7286 43.6132C32.8123 43.5494 32.9153 43.4919 33.3081 43.1725ZM36.1281 44.7695C36.4758 44.399 37.1389 43.7027 37.5445 43.3258C37.9502 42.9553 38.0983 42.9042 38.2657 42.8914C38.4331 42.8786 38.6198 42.8914 38.8194 42.9808C39.0254 43.0703 39.2507 43.23 39.4374 43.4024C39.6242 43.5685 39.7787 43.741 39.8559 43.8815C39.9396 44.0285 39.9461 44.1371 39.9203 44.2712C39.8946 44.399 39.8237 44.5523 39.5147 44.9228C39.2057 45.2933 38.6455 45.881 38.2978 46.2196C37.9437 46.5582 37.7956 46.6412 37.6604 46.6731C37.5188 46.7115 37.39 46.6987 37.2097 46.6348C37.0295 46.5709 36.8041 46.4623 36.553 46.2835C36.3019 46.0982 36.0251 45.8491 35.877 45.6958C35.7289 45.5424 35.7032 45.485 35.6967 45.4211C35.6903 45.3572 35.6967 45.2933 35.7225 45.2358C35.7418 45.1847 35.7804 45.14 36.1281 44.7695ZM31.3959 41.371C31.7178 41.6265 32.2779 42.1376 32.5741 42.4187C32.8638 42.7061 32.8831 42.7636 32.8896 42.8531C32.9024 42.9425 32.9024 43.0702 32.7157 43.23C32.5355 43.396 32.162 43.5941 31.9109 43.7218C31.6663 43.856 31.5311 43.9135 31.3572 43.9326C31.1898 43.9582 30.9774 43.9454 30.7456 43.8432C30.5138 43.741 30.2691 43.5494 30.076 43.3385C29.8828 43.1277 29.7476 42.8978 29.6639 42.7317C29.5867 42.5656 29.5609 42.457 29.5995 42.3484C29.6382 42.2334 29.7347 42.1184 29.9215 41.9268C30.1082 41.7415 30.3722 41.4796 30.5524 41.3263C30.7327 41.173 30.8228 41.1346 30.913 41.1155C30.9967 41.1027 31.0739 41.1091 31.3959 41.371ZM39.3859 46.3665C39.6692 46.0663 40.1843 45.5488 40.4933 45.2678C40.7959 44.9867 40.8925 44.9547 41.0213 44.9484C41.1501 44.942 41.311 44.9611 41.4913 45.0506C41.6651 45.14 41.8583 45.2997 41.9935 45.4339C42.1351 45.568 42.2124 45.683 42.2703 45.7788C42.3283 45.8746 42.3669 45.9449 42.3798 46.0216C42.3927 46.0982 42.3798 46.1749 42.1545 46.4815C41.9227 46.7817 41.4784 47.3056 41.1887 47.6058C40.8925 47.9061 40.7509 47.9763 40.5964 47.9955C40.4418 48.0147 40.2744 47.9763 40.0298 47.8358C39.7851 47.6952 39.4632 47.4525 39.27 47.3056C39.0769 47.1587 39.0189 47.1075 38.9932 47.0437C38.9739 46.9734 38.9868 46.8903 39.0189 46.8137C39.0511 46.7306 39.1026 46.6604 39.3859 46.3665Z" fill="#2B2A29" stroke="white" stroke-width="0.4" mask="url(#path-3-inside-1_823_2816)"/>
<path fill-rule="evenodd" clip-rule="evenodd" d="M27.5434 13.9561C27.8139 13.4387 28.3096 12.5443 28.8826 11.7522C29.4557 10.9601 30.0995 10.2702 30.4021 9.91244C30.7047 9.55471 30.6596 9.53554 30.9107 9.46527C31.1618 9.40139 31.7091 9.29279 32.9131 9.20336C34.1106 9.11392 35.9649 9.04366 38.2183 9.0181C40.4782 8.98616 43.1437 8.99894 45.0946 9.03727C47.0454 9.08198 48.288 9.15225 49.1637 9.20336C50.0393 9.26085 50.5544 9.29279 50.9407 9.36306C51.327 9.42694 51.5781 9.52276 51.9772 9.93799C52.3764 10.3532 52.9173 11.0942 53.3422 11.6947C53.7671 12.2952 54.0762 12.7615 54.456 13.3812C54.8295 13.9945 55.2737 14.7738 55.5377 15.221C55.7952 15.6745 55.8789 15.8087 55.9884 15.9301C56.0978 16.0578 56.2395 16.1792 56.3425 16.2367C56.4519 16.2942 56.5228 16.2942 56.555 16.2431C56.5936 16.1856 56.5936 16.0834 56.5872 15.8278C56.5743 15.5723 56.555 15.1635 56.5678 14.8888C56.5743 14.6141 56.6129 14.4736 56.6902 14.3841C56.7674 14.2947 56.8962 14.2564 57.4692 14.25C58.0422 14.2372 59.0724 14.25 59.5939 14.2564C60.1154 14.2564 60.1347 14.2564 60.2699 14.5438C60.4116 14.8313 60.6627 15.3998 60.7914 15.6873C60.9202 15.9748 60.9202 15.9748 60.7786 16.1792C60.6369 16.39 60.3536 16.8052 60.212 17.016C60.0703 17.2268 60.0703 17.2268 59.742 17.2396C59.4072 17.2588 58.744 17.2971 58.4157 17.3163C58.0873 17.3291 58.1002 17.329 58.2225 17.4313C58.3448 17.5335 58.5831 17.7379 58.7505 17.904C58.9114 18.0701 59.0016 18.1978 59.0595 19.6927C59.1175 21.1875 59.1432 24.043 59.1561 25.4739C59.169 26.9048 59.169 26.9048 58.9951 25.5761C58.8148 24.2474 58.4607 21.5963 58.2483 20.2165C58.0358 18.843 57.965 18.7472 57.5078 18.3639C57.0443 17.9742 56.1944 17.2971 55.7695 16.9585C55.3445 16.62 55.3445 16.62 54.6427 17.6612C53.9474 18.7153 52.5438 20.8106 51.8485 21.8582C51.1467 22.9059 51.1467 22.9059 52.0609 22.4076C52.9816 21.9157 54.8101 20.9256 55.7888 20.4337C56.7674 19.9354 56.8962 19.9354 56.9992 19.9737C57.1087 20.0121 57.1924 20.0823 57.2503 20.3123C57.3018 20.5487 57.3211 20.9383 57.2632 21.3152C57.2117 21.6857 57.0893 22.0435 56.8576 22.4651C56.6258 22.8931 56.291 23.3786 55.924 23.7427C55.557 24.1068 55.1578 24.3432 54.823 24.4646C54.4882 24.5796 54.2114 24.5796 53.6448 24.5987C53.0782 24.6179 52.2219 24.6498 51.7326 24.6307C51.2433 24.6051 51.1274 24.5221 50.9407 24.3943C50.7475 24.2729 50.4835 24.1068 50.3483 24.0238C50.2196 23.9408 50.2196 23.9408 49.0156 24.1452C47.818 24.356 45.4165 24.7712 44.2189 24.982C43.0214 25.1864 43.0214 25.1864 42.9828 25.0842C42.9506 24.9884 42.8798 24.784 42.6995 24.6243C42.5256 24.4646 42.2424 24.3432 41.8239 24.2857C41.4054 24.2218 40.8581 24.2218 40.4975 24.2538C40.1434 24.2857 39.976 24.3432 39.8344 24.4326C39.6992 24.5221 39.5897 24.6434 39.4996 24.7776C39.4094 24.9117 39.3258 25.0714 38.5789 25.0203C37.832 24.9756 36.4156 24.7265 35.218 24.5285C34.0205 24.3304 33.0483 24.1899 32.559 24.1196C32.0761 24.043 32.0761 24.043 31.8443 24.1707C31.6125 24.2985 31.1554 24.5476 30.9236 24.669C30.6918 24.7968 30.6918 24.7968 30.4343 24.7776C30.1703 24.7584 29.6488 24.7265 29.0758 24.6307C28.5092 24.5349 27.8847 24.3815 27.5048 24.2921C27.1249 24.2027 26.9833 24.1771 26.6678 23.7938C26.3459 23.4169 25.8501 22.6759 25.6055 22.3054C25.3544 21.9413 25.3544 21.9413 25.3093 21.788C25.2642 21.641 25.1805 21.3408 25.129 21.0533C25.0775 20.7595 25.0711 20.472 25.1097 20.2676C25.1483 20.0568 25.2385 19.929 25.3479 19.8651C25.451 19.8076 25.5733 19.8204 26.0047 20.0248C26.436 20.2229 27.17 20.6189 28.0843 21.1044C28.9921 21.5963 30.0802 22.1776 30.6274 22.4651C31.1747 22.759 31.1747 22.759 30.518 21.7241C29.8677 20.6892 28.5671 18.6194 27.9169 17.5782C27.2666 16.5433 27.2666 16.5433 27.1185 16.6647C26.964 16.7861 26.6678 17.0224 26.1978 17.361C25.7278 17.6996 25.0904 18.1403 24.7685 18.3639C24.453 18.5811 24.453 18.5811 24.2405 19.961C24.0345 21.3408 23.616 24.1068 23.41 25.4867C23.2039 26.8665 23.2039 26.8665 23.2619 25.3972C23.3198 23.928 23.4357 20.9831 23.4937 19.5138C23.5452 18.0445 23.5452 18.0445 23.6868 17.9487C23.822 17.8529 24.0989 17.6612 24.2341 17.5718C24.3693 17.476 24.3693 17.476 24.1182 17.476C23.8671 17.476 23.3649 17.476 23.1074 17.476C22.8563 17.476 22.8563 17.476 22.6502 17.2205C22.4442 16.9649 22.0257 16.4475 21.8197 16.192C21.6072 15.9364 21.6072 15.9364 21.7489 15.7065C21.8841 15.4765 22.1609 15.0102 22.2961 14.7802C22.4313 14.5438 22.4313 14.5438 22.9657 14.5438C23.4937 14.5438 24.556 14.5438 25.1355 14.5694C25.7149 14.5949 25.8179 14.6397 25.863 14.7099C25.9145 14.7802 25.9145 14.876 25.9081 15.1315C25.9016 15.3934 25.8952 15.8087 25.8888 16.0131C25.8888 16.2239 25.8888 16.2239 25.9982 16.1281C26.1077 16.0323 26.3266 15.8406 26.539 15.5979C26.7515 15.3551 26.9575 15.0549 27.0863 14.8377C27.2151 14.6141 27.2666 14.4736 27.5434 13.9561ZM34.8317 9.92522C34.1364 9.91244 32.6169 9.99549 31.8507 10.0402C31.091 10.0785 31.091 10.0785 30.8077 10.4938C30.5244 10.9026 29.9578 11.7267 29.5715 12.2824C29.1788 12.8446 28.9663 13.1384 28.741 13.5664C28.5156 13.9945 28.2774 14.5566 28.1551 14.8441C28.0392 15.1315 28.0392 15.1379 28.3933 15.221C28.7539 15.2976 29.4685 15.4382 30.4665 15.5723C31.4644 15.7001 32.7392 15.8215 33.6535 15.8598C34.5742 15.9045 35.1279 15.8662 35.4112 15.847C35.688 15.8278 35.688 15.8278 34.9476 15.6554C34.2072 15.4765 32.7328 15.1188 31.9409 14.908C31.1425 14.6971 31.0395 14.6397 30.9622 14.5311C30.8914 14.4288 30.8463 14.2691 30.9172 14.02C30.988 13.7709 31.1747 13.4259 31.5417 12.9212C31.9087 12.4166 32.456 11.7458 32.971 11.2923C33.4925 10.8323 33.9754 10.5832 34.3489 10.4235C34.7223 10.2702 34.9798 10.2127 35.1794 10.1296C35.379 10.0466 35.5206 9.93799 34.8317 9.92522ZM28.9856 16.8116C30.0287 16.8563 32.2628 17.0544 33.6857 17.1693C35.115 17.2843 35.7331 17.3099 36.0422 17.3163C36.3512 17.3291 36.3512 17.329 36.1902 18.1276C36.0228 18.9261 35.6945 20.5231 35.5335 21.3216C35.3661 22.1201 35.3661 22.1201 35.6816 21.3344C35.9971 20.555 36.6281 18.9963 36.9435 18.217C37.2526 17.4376 37.2526 17.4376 38.5403 17.4376C39.8215 17.4376 42.3904 17.4376 43.6717 17.4376C44.9594 17.4376 44.9594 17.4376 44.9594 17.4376C44.9594 17.4376 44.9594 17.4376 45.2555 18.1914C45.5517 18.9389 46.144 20.4401 46.4531 21.2066C46.7621 21.9732 46.7879 22.0115 46.6655 21.2641C46.5432 20.5231 46.2664 18.9963 46.1312 18.2362C45.9959 17.476 45.996 17.476 47.1356 17.3993C48.2816 17.3163 50.5608 17.163 51.9901 17.048C53.4259 16.9266 53.9989 16.8436 54.2886 16.7988C54.5719 16.7605 54.5719 16.7605 53.8058 17.7698C53.0396 18.7855 51.5072 20.8106 50.7475 21.8199C49.9813 22.8292 49.9813 22.8292 49.2023 22.9698C48.4232 23.1039 46.8587 23.3786 45.777 23.5511C44.6954 23.7236 44.0837 23.7938 43.7425 23.8194C43.4077 23.8449 43.3498 23.8194 43.221 23.7044C43.0922 23.5958 42.8926 23.3914 42.6544 23.2572C42.4098 23.1295 42.1136 23.072 41.7466 23.0464C41.3732 23.0209 40.9225 23.0336 40.5941 23.0656C40.2658 23.0911 40.0597 23.1422 39.8859 23.1806C39.7185 23.2253 39.5768 23.2572 39.4481 23.353C39.3193 23.4489 39.2034 23.6022 39.1004 23.6916C38.9974 23.7811 38.9137 23.8066 37.8063 23.6661C36.7053 23.5191 34.5871 23.2125 33.5312 23.0592C32.4753 22.9059 32.4753 22.9059 31.8121 21.9924C31.1554 21.0789 29.8355 19.2583 29.1273 18.2745C28.4191 17.2971 28.3225 17.1502 28.2002 17.0224C28.0843 16.8883 27.9426 16.7733 28.9856 16.8116Z" fill="#2B2A29"/>
<path fill-rule="evenodd" clip-rule="evenodd" d="M41.0035 0C63.6427 0 82 12.5307 82 28C82 43.4624 63.6427 56 41.0035 56C18.3573 56 0 43.4624 0 28C0 12.5307 18.3573 0 41.0035 0ZM41.1851 3.10495C62.2107 3.10495 79.2618 14.298 79.2618 28.104C79.2618 41.9168 62.2107 53.1099 41.1851 53.1099C20.1525 53.1099 3.10146 41.9168 3.10146 28.104C3.10146 14.298 20.1525 3.10495 41.1851 3.10495Z" fill="#2B2A29"/>
</svg>
