<svg width="178" height="122" viewBox="0 0 178 122" fill="none" xmlns="http://www.w3.org/2000/svg">
<path fill-rule="evenodd" clip-rule="evenodd" d="M89.0076 0C138.151 0 178 27.299 178 61C178 94.6859 138.151 122 89.0076 122C39.8487 122 0 94.6859 0 61C0 27.299 39.8487 0 89.0076 0ZM89.4018 6.76436C135.043 6.76436 172.056 31.1493 172.056 61.2265C172.056 91.3188 135.043 115.704 89.4018 115.704C43.7456 115.704 6.73243 91.3188 6.73243 61.2265C6.73243 31.1493 43.7456 6.76436 89.4018 6.76436ZM159.425 55.1567C163.474 54.9453 151.98 60.7433 145.49 63.9141C138.985 67.1 137.499 67.6587 135.376 68.4287C133.254 69.1988 130.524 70.1953 129.129 72.3696C127.734 74.5438 127.674 77.9109 127.643 80.2059C127.628 82.5161 127.628 83.7693 127.31 84.7205C127.006 85.6718 126.385 86.3361 125.111 87.3478C123.822 88.3745 121.881 89.7485 120.319 91.0772C118.742 92.4059 117.56 93.6591 116.862 93.9158C116.165 94.1725 115.983 93.4176 115.316 92.0587C114.648 90.7148 113.511 88.7671 112.935 87.8007C112.359 86.8344 112.359 86.8344 112.617 86.774C112.89 86.7136 113.405 86.5777 113.678 86.5173C113.936 86.4569 113.936 86.4569 113.36 86.3512C112.783 86.2455 111.646 86.0341 110.448 85.4604C109.266 84.9017 108.022 83.9656 105.763 82.7275C103.504 81.4743 100.213 79.9191 97.4231 78.9678C94.6331 78.0166 92.3435 77.6844 90.7513 77.4881C89.1592 77.3069 88.2494 77.2616 87.7945 77.2465C87.3396 77.2163 87.3396 77.2163 87.37 76.9445C87.3851 76.6728 87.4458 76.1292 87.4458 75.8423C87.4458 75.5705 87.3851 75.5705 87.0515 76.1292C86.7179 76.6728 86.1114 77.7599 85.3684 78.7111C84.6254 79.6624 83.7763 80.4626 82.8817 81.0817C82.0022 81.6856 81.1076 82.1084 80.1675 82.3802C79.2425 82.652 78.2872 82.7879 77.5746 82.7577C76.8619 82.7426 76.3918 82.5765 75.9824 82.3198C75.573 82.0631 75.2395 81.7309 75.2243 81.2629C75.194 80.7797 75.4821 80.1757 76.3464 78.6507C77.2258 77.1408 78.6815 74.7099 79.5913 73.1396C80.5011 71.5844 80.8801 70.8899 81.2592 70.3916C81.6535 69.9084 82.0629 69.6215 83.3366 69.4252C84.6103 69.229 86.7483 69.1233 89.1289 69.078C91.4943 69.0327 94.1176 69.0327 95.6035 69.1233C97.0895 69.229 97.4231 69.4252 100.183 69.6819C102.942 69.9537 108.128 70.2708 111.191 69.9688C114.269 69.6668 115.24 68.7307 125.52 65.1522C135.801 61.5889 155.377 55.3681 159.425 55.1567ZM28.4915 57.4366C36.7251 59.324 52.0247 63.5215 60.5312 66.4658C69.0377 69.4252 70.7663 71.1314 72.7527 71.826C74.7391 72.5205 77.0135 72.1733 77.4533 73.1094C77.893 74.0304 76.5132 76.2198 75.6185 77.7146C74.7239 79.1943 74.3145 79.9794 74.1629 80.5683C74.0112 81.1572 74.1022 81.5648 74.3297 81.9574C74.5571 82.3651 74.9059 82.7577 75.4821 83.0748C76.0583 83.3918 76.8467 83.6183 77.8172 83.6636C78.7876 83.6938 79.9552 83.5277 81.0318 83.1502C82.1084 82.7879 83.0788 82.2141 83.9583 81.5498C84.8529 80.8854 85.6262 80.1304 86.2934 79.5567C86.9454 78.9829 87.4609 78.6054 88.2343 78.4545C89.0076 78.2884 90.0387 78.3488 91.7369 78.6205C93.4201 78.8772 95.7855 79.3453 98.0903 80.1304C100.41 80.9005 102.67 82.0027 104.792 83.1049C106.93 84.2223 108.932 85.3396 110.327 86.5324C111.722 87.7403 112.51 89.0238 113.481 90.6092C114.466 92.2096 115.634 94.1121 116.301 95.2144C116.968 96.3166 117.135 96.6337 117.226 96.83C117.317 97.0413 117.347 97.1168 116.847 97.6453C116.347 98.1587 115.316 99.1099 114.648 99.5931C113.981 100.076 113.678 100.091 113.329 100.031C112.98 99.9705 112.601 99.8195 111.131 98.1889C109.645 96.5582 107.067 93.4327 105.687 91.8473C104.292 90.2619 104.08 90.2317 103.958 90.2317C103.837 90.2468 103.807 90.3072 103.792 90.428C103.761 90.5488 103.746 90.7148 105.111 92.4512C106.476 94.1876 109.235 97.4943 110.63 99.2307C112.025 100.952 112.056 101.103 111.949 101.39C111.843 101.677 111.601 102.1 110.949 102.628C110.297 103.156 109.22 103.791 108.598 104.108C107.977 104.44 107.81 104.455 107.491 104.274C107.173 104.108 106.688 103.715 105.278 102.069C103.852 100.439 101.502 97.5245 100.243 96.0297C98.9698 94.55 98.803 94.4896 98.6362 94.4594C98.4694 94.4443 98.3026 94.4594 98.2268 94.55C98.1358 94.6255 98.1358 94.7765 99.2427 96.3015C100.334 97.8114 102.518 100.71 103.67 102.296C104.808 103.896 104.899 104.183 104.883 104.5C104.853 104.817 104.717 105.15 104.338 105.512C103.958 105.874 103.337 106.267 102.73 106.539C102.124 106.826 101.517 106.976 101.077 107.037C100.638 107.097 100.35 107.052 99.1517 105.708C97.9538 104.379 95.831 101.737 94.6634 100.318C93.4959 98.8985 93.2836 98.6871 93.041 98.5512C92.7984 98.4002 92.5406 98.3399 92.389 98.4153C92.2373 98.4908 92.1767 98.7022 92.207 98.8532C92.2373 99.0193 92.3283 99.125 93.2684 100.288C94.2085 101.45 95.9978 103.655 96.8924 104.893C97.787 106.131 97.787 106.403 97.7415 106.72C97.7112 107.037 97.6354 107.399 97.3776 107.731C97.1199 108.064 96.665 108.366 96.1949 108.501C95.74 108.652 95.2548 108.652 94.8909 108.577C94.5118 108.486 94.254 108.32 94.0569 108.094C93.8446 107.882 93.7081 107.596 93.693 107.143C93.6778 106.674 93.7991 106.025 93.9053 105.512C94.0114 105.014 94.1176 104.651 94.1176 104.259C94.1176 103.866 94.0114 103.443 93.8446 103.051C93.6778 102.673 93.4504 102.311 93.1168 101.979C92.7832 101.662 92.3435 101.36 91.9796 101.194C91.6156 101.027 91.2972 100.982 90.8878 100.952C90.4632 100.922 89.9477 100.892 89.5686 100.907C89.2047 100.922 88.9924 100.952 88.8559 100.967C88.7346 100.982 88.674 100.952 88.6285 100.771C88.5678 100.575 88.492 100.227 88.3859 99.9102C88.2797 99.6082 88.1281 99.3515 87.8855 99.0646C87.6277 98.7626 87.279 98.4304 86.9302 98.1587C86.5815 97.902 86.2479 97.7057 85.9598 97.5698C85.6565 97.4339 85.3988 97.3584 85.0652 97.3131C84.7467 97.2678 84.3677 97.2678 83.9583 97.3282C83.564 97.3886 83.1243 97.5245 82.6846 97.7057C82.2448 97.902 81.7899 98.1587 81.5625 98.2795C81.3502 98.4002 81.3502 98.4003 81.3502 98.0983C81.3502 97.7963 81.3502 97.1772 81.2592 96.7394C81.1834 96.3015 81.0166 96.0297 80.7285 95.6824C80.4404 95.3351 80.031 94.9124 79.5306 94.6104C79.0302 94.3235 78.4389 94.1423 77.8627 94.0668C77.2865 93.9762 76.7406 93.9762 76.2402 94.0668C75.7398 94.1725 75.2849 94.3537 74.7997 94.6255C74.3145 94.9124 73.7838 95.2597 73.1621 95.7881C72.5253 96.3015 71.7823 96.9809 71.4183 97.3131C71.0544 97.6453 71.0544 97.6453 70.5237 97.147C70.0082 96.6639 68.9619 95.6673 67.8399 94.6708C66.7329 93.6591 65.5654 92.6475 64.1249 91.7416C62.6844 90.8356 60.971 90.0354 60.1673 88.8275C59.3485 87.6347 59.4546 86.0341 59.1514 83.4824C58.8481 80.9307 58.1506 77.4277 55.6487 74.5136C53.1468 71.6146 48.8253 69.3196 47.6274 68.5646C46.4447 67.7946 48.3856 68.5646 44.3977 66.9792C40.3946 65.3938 30.4779 61.4379 25.0647 59.2938C19.6666 57.1498 18.772 56.7874 18.9084 56.3948C19.0601 56.0022 20.2579 55.5644 28.4915 57.4366ZM71.4335 99.3062C72.3433 98.5512 73.9051 97.1923 74.8755 96.4525C75.8308 95.7277 76.1796 95.6522 76.5132 95.6069C76.8467 95.5767 77.1803 95.6069 77.4988 95.6975C77.8172 95.7881 78.1205 95.9693 78.4844 96.2109C78.8483 96.4525 79.2729 96.7696 79.561 97.0111C79.8491 97.2527 80.0158 97.4339 80.122 97.6604C80.2281 97.8718 80.2888 98.1285 80.2433 98.4304C80.213 98.7173 80.0765 99.0797 79.0909 100.016C78.0901 100.952 76.2402 102.477 75.103 103.277C73.9809 104.093 73.5867 104.168 73.1773 104.153C72.7527 104.138 72.313 104.032 71.7368 103.579C71.1606 103.126 70.4479 102.326 70.0537 101.873C69.6594 101.42 69.5836 101.314 69.5533 101.194C69.5229 101.073 69.5381 100.952 69.6139 100.816C69.7049 100.68 69.8565 100.499 70.0688 100.348C70.2659 100.197 70.5086 100.061 71.4335 99.3062ZM78.075 103.081C78.8938 102.205 80.4556 100.559 81.4109 99.6686C82.3661 98.7928 82.7149 98.672 83.1091 98.6418C83.5034 98.6116 83.9431 98.6418 84.4131 98.8532C84.8984 99.0646 85.4291 99.4421 85.8688 99.8498C86.3085 100.242 86.6725 100.65 86.8544 100.982C87.0515 101.329 87.0667 101.586 87.0061 101.903C86.9454 102.205 86.7786 102.568 86.0508 103.443C85.3229 104.319 84.0037 105.708 83.1849 106.508C82.351 107.309 82.0022 107.505 81.6838 107.58C81.3502 107.671 81.0469 107.641 80.6224 107.49C80.1978 107.339 79.6671 107.082 79.0757 106.659C78.4844 106.222 77.8324 105.633 77.4836 105.27C77.1348 104.908 77.0742 104.772 77.059 104.621C77.0439 104.47 77.059 104.319 77.1197 104.183C77.1652 104.062 77.2562 103.957 78.075 103.081ZM66.9301 95.0483C67.6882 95.6522 69.0074 96.8602 69.7049 97.5245C70.3873 98.204 70.4327 98.3399 70.4479 98.5512C70.4782 98.7626 70.4782 99.0646 70.0385 99.4421C69.6139 99.8346 68.7345 100.303 68.1431 100.605C67.5669 100.922 67.2485 101.058 66.8391 101.103C66.4448 101.163 65.9445 101.133 65.3986 100.892C64.8527 100.65 64.2765 100.197 63.8216 99.6988C63.3667 99.2005 63.0483 98.6569 62.8512 98.2644C62.6692 97.8718 62.6086 97.6151 62.6995 97.3584C62.7905 97.0866 63.018 96.8148 63.4577 96.3619C63.8974 95.924 64.5191 95.3049 64.9437 94.9426C65.3683 94.5802 65.5805 94.4896 65.7928 94.4443C65.9899 94.4141 66.1719 94.4292 66.9301 95.0483ZM85.7475 106.856C86.4147 106.146 87.6277 104.923 88.3556 104.259C89.0682 103.594 89.2957 103.519 89.5989 103.504C89.9022 103.489 90.2813 103.534 90.7058 103.745C91.1153 103.957 91.5702 104.334 91.8886 104.651C92.2222 104.968 92.4041 105.24 92.5406 105.467C92.6771 105.693 92.768 105.859 92.7984 106.04C92.8287 106.222 92.7984 106.403 92.2677 107.127C91.7218 107.837 90.6755 109.075 89.9932 109.785C89.2957 110.495 88.9621 110.661 88.5982 110.706C88.2343 110.751 87.84 110.661 87.2638 110.328C86.6876 109.996 85.9295 109.423 85.4746 109.075C85.0197 108.728 84.8832 108.607 84.8226 108.456C84.7771 108.29 84.8074 108.094 84.8832 107.913C84.959 107.716 85.0803 107.55 85.7475 106.856ZM58.2416 29.2619C58.8784 28.0389 60.046 25.925 61.3955 24.0527C62.745 22.1804 64.2613 20.5498 64.974 19.7042C65.6867 18.8587 65.5805 18.8134 66.1719 18.6473C66.7633 18.4963 68.0521 18.2396 70.8876 18.0282C73.708 17.8168 78.075 17.6507 83.3821 17.5903C88.7043 17.5149 94.9819 17.545 99.5763 17.6356C104.171 17.7413 107.097 17.9074 109.159 18.0282C111.222 18.1641 112.435 18.2396 113.344 18.4057C114.254 18.5567 114.846 18.7832 115.786 19.7646C116.726 20.746 117.999 22.4975 119 23.9168C120.001 25.3361 120.729 26.4384 121.623 27.903C122.503 29.3525 123.549 31.1946 124.171 32.2515C124.777 33.3235 124.975 33.6406 125.232 33.9275C125.49 34.2295 125.824 34.5163 126.066 34.6522C126.324 34.7881 126.491 34.7881 126.567 34.6673C126.658 34.5314 126.658 34.2899 126.642 33.6859C126.612 33.0819 126.567 32.1156 126.597 31.4663C126.612 30.8171 126.703 30.4849 126.885 30.2735C127.067 30.0621 127.37 29.9715 128.72 29.9564C130.069 29.9262 132.495 29.9564 133.724 29.9715C134.952 29.9715 134.997 29.9715 135.316 30.651C135.649 31.3304 136.241 32.6743 136.544 33.3537C136.847 34.0332 136.847 34.0332 136.514 34.5163C136.18 35.0146 135.513 35.996 135.179 36.4943C134.846 36.9926 134.846 36.9926 134.072 37.0228C133.284 37.0681 131.722 37.1587 130.949 37.204C130.175 37.2342 130.206 37.2342 130.494 37.4757C130.782 37.7173 131.343 38.2005 131.737 38.5931C132.116 38.9856 132.329 39.2876 132.465 42.8208C132.602 46.354 132.662 53.1032 132.693 56.4854C132.723 59.8676 132.723 59.8676 132.313 56.727C131.889 53.5864 131.055 47.3203 130.555 44.0589C130.054 40.8126 129.887 40.5861 128.811 39.6802C127.719 38.7592 125.718 37.1587 124.717 36.3584C123.716 35.5582 123.716 35.5582 122.063 38.0193C120.426 40.5106 117.12 45.4631 115.482 47.9394C113.83 50.4156 113.83 50.4156 115.983 49.2379C118.151 48.0752 122.457 45.7349 124.762 44.5723C127.067 43.3946 127.37 43.3946 127.613 43.4851C127.871 43.5757 128.068 43.7418 128.204 44.2854C128.326 44.8441 128.371 45.7651 128.235 46.6559C128.113 47.5317 127.825 48.3772 127.279 49.3738C126.733 50.3854 125.945 51.5329 125.081 52.3936C124.216 53.2542 123.276 53.8129 122.488 54.0997C121.699 54.3715 121.047 54.3715 119.713 54.4168C118.379 54.4621 116.362 54.5376 115.209 54.4923C114.057 54.4319 113.784 54.2356 113.344 53.9337C112.89 53.6468 112.268 53.2542 111.949 53.0579C111.646 52.8616 111.646 52.8616 108.811 53.3448C105.99 53.8431 100.334 54.8245 97.5141 55.3228C94.6938 55.8059 94.6938 55.8059 94.6028 55.5644C94.527 55.3379 94.3602 54.8547 93.9356 54.4772C93.5262 54.0997 92.859 53.8129 91.8734 53.677C90.8878 53.526 89.5989 53.526 88.7498 53.6015C87.9158 53.677 87.5216 53.8129 87.188 54.0243C86.8696 54.2356 86.6118 54.5225 86.3995 54.8396C86.1872 55.1567 85.9901 55.5342 84.2312 55.4134C82.4723 55.3077 79.1364 54.7188 76.316 54.2507C73.4957 53.7827 71.2061 53.4505 70.0537 53.2844C68.9164 53.1032 68.9164 53.1032 68.3706 53.4052C67.8247 53.7072 66.7481 54.296 66.2022 54.5829C65.6564 54.8849 65.6564 54.8849 65.0498 54.8396C64.4281 54.7943 63.1999 54.7188 61.8504 54.4923C60.5161 54.2658 59.0452 53.9035 58.1506 53.6921C57.256 53.4807 56.9224 53.4203 56.1794 52.5144C55.4212 51.6235 54.2537 49.872 53.6775 48.9963C53.0861 48.1356 53.0861 48.1356 52.98 47.7733C52.8738 47.426 52.6767 46.7163 52.5554 46.0369C52.4341 45.3423 52.4189 44.6629 52.5099 44.1797C52.6009 43.6814 52.8132 43.3795 53.071 43.2285C53.3136 43.0926 53.6017 43.1228 54.6176 43.6059C55.6335 44.074 57.3621 45.0101 59.5153 46.1577C61.6533 47.3203 64.2159 48.6943 65.5047 49.3738C66.7936 50.0683 66.7936 50.0683 65.247 47.6223C63.7155 45.1762 60.6525 40.2842 59.121 37.823C57.5896 35.377 57.5896 35.377 57.2408 35.6639C56.8769 35.9507 56.1794 36.5094 55.0725 37.3097C53.9656 38.1099 52.4644 39.1517 51.7063 39.6802C50.9633 40.1936 50.9633 40.1936 50.4629 43.455C49.9777 46.7163 48.9921 53.2542 48.5069 56.5156C48.0216 59.777 48.0216 59.777 48.1581 56.3042C48.2946 52.8314 48.5675 45.8708 48.704 42.398C48.8253 38.9252 48.8253 38.9252 49.1589 38.6988C49.4773 38.4723 50.1293 38.0193 50.4477 37.8079C50.7662 37.5814 50.7662 37.5814 50.1748 37.5814C49.5834 37.5814 48.4007 37.5814 47.7942 37.5814C47.2028 37.5814 47.2028 37.5814 46.7176 36.9775C46.2324 36.3735 45.2468 35.1505 44.7616 34.5465C44.2612 33.9426 44.2612 33.9426 44.5948 33.399C44.9132 32.8554 45.5652 31.7532 45.8836 31.2097C46.2021 30.651 46.2021 30.651 47.4606 30.651C48.704 30.651 51.2059 30.651 52.5706 30.7114C53.9353 30.7718 54.1779 30.8775 54.284 31.0436C54.4053 31.2097 54.4053 31.4361 54.3902 32.0401C54.375 32.6592 54.3598 33.6406 54.3447 34.1238C54.3447 34.622 54.3447 34.622 54.6024 34.3955C54.8602 34.1691 55.3758 33.7161 55.8761 33.1423C56.3765 32.5686 56.8617 31.8589 57.165 31.3455C57.4683 30.8171 57.5896 30.4849 58.2416 29.2619ZM75.4062 19.7344C73.7686 19.7042 70.1901 19.9005 68.3857 20.0062C66.5965 20.0968 66.5965 20.0968 65.9293 21.0782C65.2621 22.0446 63.9278 23.9923 63.018 25.3059C62.093 26.6347 61.5926 27.3292 61.0619 28.3408C60.5312 29.3525 59.9702 30.6812 59.6821 31.3606C59.4091 32.0401 59.4091 32.0552 60.2431 32.2515C61.0923 32.4327 62.7754 32.7649 65.1256 33.0819C67.4759 33.3839 70.4782 33.6708 72.6314 33.7614C74.7997 33.8671 76.1038 33.7765 76.7709 33.7312C77.4229 33.6859 77.423 33.6859 75.6792 33.2782C73.9354 32.8554 70.4631 32.0099 68.598 31.5116C66.7178 31.0134 66.4752 30.8775 66.2932 30.6208C66.1264 30.3792 66.0203 30.0017 66.1871 29.4129C66.3539 28.824 66.7936 28.0087 67.6579 26.8158C68.5222 25.623 69.8111 24.0376 71.0241 22.9656C72.2523 21.8785 73.3896 21.2896 74.269 20.9121C75.1485 20.5498 75.755 20.4139 76.2251 20.2176C76.6951 20.0213 77.0287 19.7646 75.4062 19.7344ZM61.6381 36.0111C64.0946 36.1168 69.3562 36.5849 72.7072 36.8567C76.0734 37.1285 77.5291 37.1889 78.2569 37.204C78.9847 37.2342 78.9847 37.2342 78.6057 39.1215C78.2114 41.0089 77.4381 44.7837 77.059 46.671C76.6648 48.5584 76.6648 48.5584 77.4078 46.7012C78.1508 44.8592 79.6368 41.175 80.3798 39.3329C81.1076 37.4908 81.1076 37.4908 84.1402 37.4908C87.1577 37.4908 93.2078 37.4908 96.2252 37.4908C99.2579 37.4908 99.2579 37.4908 99.2579 37.4908C99.2579 37.4908 99.2579 37.4908 99.9554 39.2725C100.653 41.0391 102.048 44.5874 102.776 46.3993C103.504 48.2111 103.564 48.3017 103.276 46.5351C102.988 44.7837 102.336 41.175 102.018 39.3782C101.699 37.5814 101.699 37.5814 104.383 37.4002C107.082 37.204 112.45 36.8416 115.816 36.5698C119.197 36.2829 120.547 36.0866 121.229 35.9809C121.896 35.8903 121.896 35.8903 120.092 38.276C118.288 40.6767 114.679 45.4631 112.89 47.8488C111.085 50.2344 111.085 50.2344 109.25 50.5666C107.416 50.8837 103.731 51.5329 101.184 51.9406C98.6362 52.3483 97.1957 52.5144 96.392 52.5747C95.6035 52.6351 95.4671 52.5747 95.1638 52.303C94.8605 52.0463 94.3905 51.5631 93.8295 51.246C93.2533 50.9441 92.5557 50.8082 91.6915 50.7478C90.812 50.6874 89.7506 50.7176 88.9773 50.7931C88.2039 50.8535 87.7187 50.9743 87.3093 51.0648C86.9151 51.1705 86.5815 51.246 86.2782 51.4725C85.975 51.699 85.702 52.0614 85.4594 52.2728C85.2168 52.4842 85.0197 52.5445 82.4116 52.2124C79.8187 51.8651 74.8301 51.1403 72.3433 50.778C69.8565 50.4156 69.8565 50.4156 68.2947 48.2564C66.7481 46.0973 63.6397 41.7941 61.9717 39.4688C60.3038 37.1587 60.0763 36.8114 59.7882 36.5094C59.5153 36.1923 59.1817 35.9205 61.6381 36.0111Z" fill="#2C3346" fill-opacity="0.5"/>
</svg>
